<?xml version="1.0" encoding="UTF-8"?>
<svg id="Layer_1" xmlns="http://www.w3.org/2000/svg" version="1.1" viewBox="0 0 64 64">
  <!-- Generator: Adobe Illustrator 29.8.2, SVG Export Plug-In . SVG Version: 2.1.1 Build 3)  -->
  <defs>
    <style>
      .st0 {
        fill: #d4af37;
      }
    </style>
  </defs>
  <path class="st0" d="M63.05,30.97c-.42,0-2.9,2.1-3.49,2.52-6.12,4.25-14.37,7.15-21.91,5.69-.21-.04-.46,0-.52-.29,4.55-1.27,8.81-5.52,10.09-10.09,3.95-14.16-11.45-26.52-23.93-17.75-5.83,4.09-8.35,11.29-6.09,18.13l3.05.76c-4.33-7.28.95-17.24,8.84-19.11,13.27-3.15,22.42,14.39,11.72,23.44-8.35,7.06-16.26-.34-24.7-2.75-4.5-1.29-11.22-1.81-15.42.66-.81.48-.78.81-.56,1.66,1.62,6.08,8.58,13.54,13.82,16.85,16.05,10.13,38.37,5.16,47.43-11.7.82-1.53,2.55-5.31,2.61-6.94.02-.62-.38-.92-.95-1.07ZM58.34,39.45c-6.93,10.63-20.04,16.05-32.53,13.46-10.44-2.17-18.59-9.33-23.16-18.79.07-.31,2.07-.84,2.45-.92,10.88-2.43,22.55,7.53,34.02,8.61,7.45.7,15.4-1.74,21.36-6.16-.63,1.3-1.35,2.59-2.14,3.8Z"/>
</svg>