<?xml version="1.0" encoding="UTF-8"?>
<svg id="Layer_1" xmlns="http://www.w3.org/2000/svg" version="1.1" viewBox="0 0 64 64">
  <!-- Generator: Adobe Illustrator 29.8.2, SVG Export Plug-In . SVG Version: 2.1.1 Build 3)  -->
  <defs>
    <style>
      .st0 {
        fill: #eb3223;
      }
    </style>
  </defs>
  <path class="st0" d="M64,31.96c.02,17.67-14.28,32.02-31.96,32.04C14.37,64.02.02,49.72,0,32.04-.02,14.37,14.28.02,31.96,0c.21,0,.41,0,.62,0,17.44.29,31.43,14.51,31.42,31.95M29.03,12.53c-1.25,0-2.49.29-3.69.53-9.01,2.07-14.64,11.05-12.58,20.06,1.7,7.42,8.19,12.75,15.79,12.99,4.31.17,8.5-1.39,11.66-4.32.67-.58.82-.53,1.25,0,.75,1.14,2.1,1.74,3.45,1.54,1.67-.31,2.86-1.8,2.78-3.5,0-1.39,0-2.78-.38-4.13-.39-3.99-1.19-7.93-2.4-11.75-2.37-6.76-8.72-11.32-15.88-11.42M54.4,42.08c1.83-.02,3.29-1.52,3.27-3.35,0-.05,0-.1,0-.15,0-2.35-.24-4.8-.48-7.05-.24-2.71-.64-5.4-1.2-8.06-1.1-4.54-2.61-8.97-4.51-13.24-.5-1.23-1.23-2.36-2.16-3.31-1.12-1.03-2.5-1.74-3.98-2.06-.58-.14-1.18.04-1.58.48-.31.47-.31,1.07,0,1.54l.29.67c1.2,3.17,2.59,6.28,3.6,9.6,2.26,7.08,3.5,14.45,3.69,21.88.07,1.66,1.41,3,3.07,3.07M39.2,29.51c0-5.62-4.55-10.17-10.17-10.17-5.62,0-10.17,4.55-10.17,10.17h0c0,5.62,4.55,10.17,10.17,10.17,5.62,0,10.17-4.55,10.17-10.17h0Z"/>
</svg>