<?xml version="1.0" encoding="UTF-8"?>
<svg id="Layer_1" xmlns="http://www.w3.org/2000/svg" version="1.1" viewBox="0 0 64 64">
  <!-- Generator: Adobe Illustrator 29.8.2, SVG Export Plug-In . SVG Version: 2.1.1 Build 3)  -->
  <defs>
    <style>
      .st0 {
        fill: #005aab;
      }

      .st0, .st1, .st2 {
        fill-rule: evenodd;
      }

      .st1 {
        fill: #ffd503;
      }

      .st2 {
        fill: #ed1c24;
      }
    </style>
  </defs>
  <path class="st0" d="M4.86,25.45c.18.29.94,2.86,1.05,3.36l-2.08-.02,1.03-3.34h0ZM11.68,22.36c-1.01.3-1,1.35-1,2.47,0,1.82-.07,5.25,0,6.86.09,1.9,2.2,2.09,2.74.6.22-.61.12-4.22.12-5.01,0-1.1.05-2.34,0-3.43-.05-.99-.73-1.83-1.85-1.5h0ZM15.35,25.32c-1.6,0-1.63,1.82,0,1.93v3.7c0,.6-.07,1.13.19,1.62.51.97,2,.88,2.42.04.38-.78.01-3.89.19-5.36.87,0,1.78-.03,1.76-.99-.03-.96-.87-.95-1.77-.95,0-.6-.07-.95.57-1.01.55-.05.98.13,1.23-.3.45-.79-.19-1.51-1.3-1.67-.99-.14-1.95.06-2.59.52-.72.52-.69,1.62-.69,2.46h0ZM23.86,27.17c1.15-.24,1.45.81,1.52,1.78.07,1.04-.05,2.28-1.08,2.37-1.19.11-1.57-.77-1.62-1.85-.06-1.14.22-2.09,1.19-2.3h0ZM25.72,32.86c.21.15.21.24.47.37.62.3,1.46.12,1.85-.59l.06-6.74c-.37-.89-1.72-1.21-2.29-.35-.53-.11-.8-.59-2.19-.47-.76.06-1.45.3-1.98.65-.93.62-1.72,1.79-1.78,3.46-.06,1.7.74,2.91,1.72,3.52.54.34,1.22.58,1.98.64,1.39.1,1.51-.26,2.17-.48h0ZM3.16,31.2l3.43-.02c.14.61.39,1.5.77,1.79.59.46,1.47.35,1.96-.14.62-.61.49-1.18.19-2.02-.23-.66-.45-1.29-.68-1.94-.46-1.29-.91-2.58-1.35-3.85-.58-1.64-.55-2.66-2.61-2.65-.86,0-1.52.17-1.85.73-.32.54-2.3,6.43-2.76,7.7-.28.77-.4,1.45.14,1.99.63.64,2.04.81,2.47-.59.1-.34.2-.66.31-1.01h0Z"/>
  <path class="st2" d="M0,39.47v1.13s51.62,0,51.62,0c2.86,0,5.72.01,8.58,0,1.13,0,2.33-.52,2.93-1.34.87-1.19.87-1.67.87-3.42-.64-.1-54.65-.03-60.23-.03-2.04,0-3.77,1.62-3.77,3.66h0Z"/>
  <path class="st2" d="M59.22,23.41c.16.4.25.26.23.91-.01.36-.07.71-.14,1.06-.12.62-.3,1.26-.45,1.89-.57,2.48-1.77,6.51,2.02,6.03,1.27-.16,2.75-.89,1.93-2.29-.55.31-2.23,1.49-2.23-.3,0-1.1.41-2.17.56-3.22,1.2,0,2.77.26,2.85-1.56-.85.17-1.6.25-2.52.2.11-.7.75-2.21.37-2.74-.49-.68-1.93-.17-2.63,0h0ZM32.76,27.49c.11-.65.59-1.84,0-2.26-.54-.39-1.79-.11-2.33.19.33.27.26.71.19,1.24-.14,1.11-.49,2.67-.77,3.73-.15.57-.65,1.89-.37,2.41.38.7,1.54.5,2.3.26-.07-.58-.38-.62.24-1.86.27-.55.53-1.07.8-1.6.28-.54.6-1.03.91-1.49.16-.25.35-.5.51-.69.1-.13.19-.17.29-.28.15-.16.13-.21.4-.23.09.69-.63,3.4-.83,4.21-.15.62-.49,1.52.03,1.96.44.38,1.59.22,2.05-.05-.29-.74-.06-1.2.25-1.86.27-.56.52-1.06.81-1.59.34-.61,1.53-2.64,2.08-2.66.09.26-.7,3.73-.81,4.33-.15.84-.11,1.67.58,1.96.83.35,1.51-.16,2.08-.38-.09-.2.01,0-.1-.17-.09-.14-.03,0-.12-.17-.4-.8-.02-2.21.15-3.05.16-.79.68-2.8.58-3.52-.18-1.32-1.65-1.05-2.64-.37-.45.31-.74.65-1.06.99-.41.43-.72.94-.94,1.17.06-.68.4-1.43.11-2.11-.26-.62-.96-.77-1.74-.5-.96.33-1.49,1.01-2.08,1.69-.11.12-.16.19-.28.35l-.29.36h0ZM47.96,27.26c-.16.21-.99,1.83-1.57,2.63-.25.35-1.88,2.83-1.73.6.07-1.03.66-4.39,2.12-4.13.47.08,1.05.59,1.18.9h0ZM47.22,30.61c-.03.91-.22,2.01.47,2.44.77.47,1.76.2,2.28-.25-.22-.78-.36-.68-.31-1.96.05-1.24.28-2.64.66-3.81l.61-1.62c-.39-.27-1.44-.44-2-.29-.23.06-.39.25-.61.22-.06-.01-.43-.2-.57-.24-2.31-.72-4.27,1.35-5.15,3.53-.59,1.45-.94,4.41.86,4.69.99.15,1.85-.43,2.29-.91.36-.4.26-.23.76-.84.2-.24.51-.8.7-.96h0ZM54.44,27.56c.01-.71.65-1.77,0-2.29-.61-.49-1.69-.09-2.35.1.34.87.16,1.45-.06,2.51-.18.83-.38,1.68-.59,2.49-.15.56-.66,2-.36,2.48.43.67,1.66.44,2.39.19-.09-.67-.36-.48.2-1.8.24-.57.48-1.05.77-1.57.26-.47,1.08-1.77,1.6-1.95.42-.15.6.13.77.36.94-.59,2.17-3.39.37-3.1-1.09.18-2.16,1.78-2.75,2.57h0Z"/>
  <path class="st1" d="M0,42.79h58.65c1.46,0,2.48.13,3.6-.57.61-.38,1.65-1.48,1.66-2.5-.2.14-.31.34-.5.51-1.81,1.61-3.39,1.26-5.96,1.26H0s0,1.29,0,1.29h0Z"/>
</svg>