<?xml version="1.0" encoding="UTF-8"?>
<svg id="Layer_1" xmlns="http://www.w3.org/2000/svg" version="1.1" xmlns:xlink="http://www.w3.org/1999/xlink" viewBox="0 0 64 64">
  <!-- Generator: Adobe Illustrator 29.8.2, SVG Export Plug-In . SVG Version: 2.1.1 Build 3)  -->
  <defs>
    <style>
      .st0 {
        fill: url(#radial-gradient10);
      }

      .st1 {
        fill: none;
      }

      .st2 {
        fill: url(#radial-gradient);
      }

      .st3 {
        fill: url(#radial-gradient5);
      }

      .st4 {
        fill: url(#radial-gradient1);
      }

      .st5 {
        fill: url(#radial-gradient7);
      }

      .st6 {
        fill: url(#radial-gradient8);
      }

      .st7 {
        fill: url(#radial-gradient6);
      }

      .st8 {
        fill: url(#radial-gradient2);
      }

      .st9 {
        fill: url(#radial-gradient4);
      }

      .st10 {
        fill: url(#radial-gradient3);
      }

      .st11 {
        fill: url(#radial-gradient9);
      }

      .st12 {
        clip-path: url(#clippath);
      }
    </style>
    <clipPath id="clippath">
      <rect class="st1" width="64" height="64"/>
    </clipPath>
    <radialGradient id="radial-gradient" cx="3.42" cy="29.61" fx="3.42" fy="29.61" r="17.76" gradientUnits="userSpaceOnUse">
      <stop offset="0" stop-color="#9dd5f6"/>
      <stop offset=".07" stop-color="#98d3f5"/>
      <stop offset=".16" stop-color="#89cef3"/>
      <stop offset=".25" stop-color="#70c6ef"/>
      <stop offset=".35" stop-color="#4ebbea"/>
      <stop offset=".45" stop-color="#23ade3"/>
      <stop offset=".5" stop-color="#0da6e0"/>
      <stop offset="1" stop-color="#2e77bc"/>
    </radialGradient>
    <radialGradient id="radial-gradient1" cx="21.81" fx="21.81" r="5.67" xlink:href="#radial-gradient"/>
    <radialGradient id="radial-gradient2" cx="29.28" fx="29.28" r="6.75" xlink:href="#radial-gradient"/>
    <radialGradient id="radial-gradient3" cx="36.6" fx="36.6" r="2.22" xlink:href="#radial-gradient"/>
    <radialGradient id="radial-gradient4" cx="42.58" fx="42.58" r="18.68" xlink:href="#radial-gradient"/>
    <radialGradient id="radial-gradient5" cx="17.95" cy="42.56" fx="17.95" fy="42.56" r="18.78" xlink:href="#radial-gradient"/>
    <radialGradient id="radial-gradient6" cx="36.97" cy="42.56" fx="36.97" fy="42.56" r="6.77" xlink:href="#radial-gradient"/>
    <radialGradient id="radial-gradient7" cx="44.99" cy="42.56" fx="44.99" fy="42.56" r="5.67" xlink:href="#radial-gradient"/>
    <radialGradient id="radial-gradient8" cx="51.96" cy="42.56" fx="51.96" fy="42.56" r="6.14" xlink:href="#radial-gradient"/>
    <radialGradient id="radial-gradient9" cx="11.22" cy="52.89" fx="11.22" fy="52.89" r="59.71" xlink:href="#radial-gradient"/>
    <radialGradient id="radial-gradient10" cx="58.97" cy="42.56" fx="58.97" fy="42.56" r="6.15" xlink:href="#radial-gradient"/>
  </defs>
  <g class="st12">
    <g>
      <path class="st2" d="M16.42,23.4l-2.16,5.1-2.35-5.1h-2.94v7.12l-3.06-7.12h-2.67L.02,30.93h1.95l.7-1.68h3.74l.69,1.68h3.66v-5.9l2.61,5.9h1.58l2.61-5.89v5.89h1.85v-7.52h-2.99ZM3.31,27.68l1.22-3,1.23,3h-2.45Z"/>
      <polygon class="st4" points="22.56 24.97 22.56 26.33 26.67 26.33 26.67 27.87 22.56 27.87 22.56 29.37 26.77 29.37 26.77 30.93 20.76 30.93 20.76 23.4 26.77 23.4 26.77 24.97 22.56 24.97"/>
      <path class="st8" d="M33.97,27.43c.47-.19,1.27-.81,1.27-2.01,0-.84-.34-1.33-.91-1.67-.58-.34-1.26-.36-2.18-.36h-4.14v7.52h1.8v-2.74h1.93c.65,0,1.05.06,1.31.32.33.36.28,1.01.28,1.47v.95h1.82v-1.48c0-.67-.04-1.01-.3-1.38-.16-.22-.49-.48-.89-.63ZM32.88,26.48c-.25.15-.54.15-.89.15h-2.18v-1.67h2.21c.32,0,.64.01.85.14.23.11.38.34.38.66s-.14.59-.37.71Z"/>
      <rect class="st10" x="36.28" y="23.4" width="1.84" height="7.52"/>
      <path class="st9" d="M57.56,23.4v5.24l-3.16-5.24h-2.74v7.12l-3.04-7.12h-2.7l-2.54,5.92h-.81c-.47,0-.98-.09-1.25-.39-.33-.38-.49-.96-.49-1.77s.21-1.39.52-1.7c.36-.35.73-.44,1.38-.44h1.7v-1.61h-1.74c-1.24,0-2.15.28-2.73.88-.77.81-.97,1.83-.97,2.94,0,1.37.33,2.23.96,2.87.63.64,1.73.83,2.61.83h2.1l.68-1.68h3.74l.7,1.68h3.66v-5.65l3.41,5.65h2.55v-7.52h-1.84ZM45.99,27.68l1.24-3,1.24,3h-2.48Z"/>
      <path class="st3" d="M31.83,36.35h-5.75l-2.29,2.47-2.21-2.47h-7.24v7.53h7.12l2.3-2.49,2.22,2.49h3.5v-2.52h2.24c1.57,0,3.13-.43,3.13-2.52s-1.6-2.48-3.03-2.48ZM20.56,42.31h-4.42v-1.5h3.95v-1.53h-3.95v-1.37h4.51l1.97,2.19-2.05,2.21ZM27.69,43.19l-2.76-3.07,2.76-2.97v6.03ZM31.81,39.82h-2.33v-1.92h2.35c.65,0,1.1.26,1.1.92s-.43.99-1.12.99Z"/>
      <path class="st7" d="M41.67,40.38c.47-.19,1.28-.8,1.28-2,0-.86-.36-1.33-.93-1.67-.59-.31-1.25-.35-2.16-.35h-4.15v7.53h1.81v-2.75h1.92c.66,0,1.06.06,1.32.33.33.35.29,1.02.29,1.47v.94h1.81v-1.49c0-.66-.05-1.01-.3-1.38-.15-.22-.48-.48-.88-.63ZM40.59,39.44c-.24.14-.54.16-.89.16h-2.18v-1.69h2.21c.32,0,.64,0,.86.14.23.12.37.35.37.68s-.14.58-.37.72Z"/>
      <polygon class="st5" points="45.73 37.91 45.73 39.28 49.84 39.28 49.84 40.81 45.73 40.81 45.73 42.31 49.94 42.32 49.94 43.88 43.94 43.88 43.94 36.35 49.94 36.35 49.94 37.91 45.73 37.91"/>
      <path class="st6" d="M55.25,42.08c.12-.12.21-.29.21-.49,0-.22-.1-.39-.22-.5-.14-.11-.33-.17-.64-.17-1.68-.06-3.79.05-3.79-2.33,0-1.09.69-2.24,2.57-2.24h3.61v1.6h-3.3c-.33,0-.54.01-.72.14-.2.12-.27.3-.27.54,0,.28.17.48.39.56.19.07.39.09.7.09l.97.02c.98.02,1.65.19,2.05.61.35.36.54.82.54,1.6,0,1.62-1.01,2.37-2.83,2.37h-3.5v-1.61h3.49c.34,0,.58-.05.74-.19Z"/>
      <path class="st11" d="M61.35,45.35c.97,0,1.92-.14,2.64-.48v19.24H0v-31.71h3.07l.69-1.67h1.55l.69,1.67h6.05v-1.28l.54,1.28h3.14l.54-1.3v1.3h15.03v-2.74s.28,0,.28,0c.2,0,.26.03.26.36v2.38h7.77v-.64c.63.34,1.6.64,2.88.64h3.27l.7-1.67h1.55l.69,1.67h6.3v-1.59l.95,1.59h5.05v-10.49h-5v1.24l-.7-1.24h-5.13v1.24l-.64-1.24h-6.93c-1.16,0-2.18.16-3,.61v-.61h-4.78v.61c-.52-.47-1.24-.61-2.03-.61H15.35l-1.17,2.71-1.2-2.71h-5.5v1.24l-.6-1.24H2.18l-2.18,4.99V-.11h63.99v34.96h-3.33c-1.01,0-1.73.24-2.25.62v-.62h-4.92c-.79,0-1.71.2-2.15.62v-.62h-8.79v.62c-.7-.5-1.88-.62-2.42-.62h-5.8v.62c-.55-.54-1.78-.62-2.54-.62h-6.49l-1.49,1.61-1.39-1.61h-9.69v10.5h9.51l1.53-1.63,1.44,1.63h5.86s0-2.46,0-2.46h.58c.78.01,1.7-.02,2.51-.37v2.83h4.84v-2.74h.23c.3,0,.33.01.33.31v2.43h14.69c.93,0,1.91-.24,2.45-.67v.67h4.66Z"/>
      <path class="st0" d="M64.37,41.5c0,.57-.13,1.04-.38,1.41-.44.64-1.29.96-2.44.96h-3.47v-1.61h3.46c.34,0,.58-.05.73-.19.12-.12.21-.29.21-.49,0-.22-.09-.39-.22-.5-.13-.11-.32-.17-.63-.17-1.69-.06-3.79.05-3.79-2.33,0-1.09.69-2.24,2.58-2.24h3.58v1.6h-3.28c-.33,0-.54.01-.73.14-.19.12-.26.3-.26.54,0,.28.16.48.39.56.19.07.39.09.69.09l.98.02c.98.02,1.64.19,2.04.61.07.06.12.12.17.19.25.34.38.75.38,1.41Z"/>
    </g>
  </g>
</svg>