<?xml version="1.0" encoding="UTF-8"?>
<svg id="Layer_1" xmlns="http://www.w3.org/2000/svg" version="1.1" viewBox="0 0 64 64">
  <!-- Generator: Adobe Illustrator 29.8.2, SVG Export Plug-In . SVG Version: 2.1.1 Build 3)  -->
  <defs>
    <style>
      .st0 {
        fill: #005faf;
      }
    </style>
  </defs>
  <path class="st0" d="M46.53,55.21l.96-.28-1.06-1.46.09,1.74ZM30.72,54.96l-.19,1.3c.48-.05,1.07.37,1.3-.56-.02-.72-.57-.76-1.12-.75h0ZM38.39,54.93c-.08-.36-.38-.62-1.12-.37l.25,1.33c.61-.14.92-.5.87-.96h0ZM21.07,53.84l-.3,1.19c.48.02,1.03.41,1.35-.3.02-.44.04-.88-1.05-.89h0ZM37.74,56.89l.22,1.37c.51.01.97-.29.84-.93-.13-.61-.65-.52-1.06-.44Z"/>
  <path class="st0" d="M57.93,6.24C41.49-2.14,21.85-1.9,6.19,5.88-1.89,20.1-2.15,40,6.19,57.62c17.26,8.73,36.35,8.16,51.87.37,7.29-14.96,8.5-32.97-.12-51.74h0ZM30.16,48.71h-.97c-.24-2.68-.89-4.95-2.27-6.68-6.33-7.94-19.28-1.96-15.95-15.46,1.73-6.9,21.46-10.97,19.19,22.14h0ZM10.99,35.38c1.38,2.81,10.05,3.28,13.05,5.43,4.77,3.42,4.09,7.91,4.09,7.91h-1.13c-2.21-6.79-8.43-1.41-13.41-3.24-3.13-1.11-5.4-5.93-2.6-10.1ZM26.78,57.51l.47-3.7.84.06-.37,4.07c-.38,1.79-3.05,1.55-3.38-.16l.43-4.22.99.16-.43,3.54c.06,1.17,1.23,1.1,1.46.25ZM22.32,58.52l-.96-.23c.11-.79,1.05-2.4-.8-2.4l-.52,2.1-1.05-.2,1.12-5.04c2.74.3,2.98,1.06,3.03,1.88-.11.63-.28,1.08-.82,1.19.64.58,0,1.8,0,2.7ZM16.25,52.87c-.26.35-.79,1.57-.87,2.54-.08,1.03.91.81,1.16.69.2-.1.35-.92.35-.92l-.69-.23.23-.69,1.56.52-.75,2.6-.64-.17.06-.4c-.78.35-2.2.09-2.37-.81-.17-.72.34-2.91,1.16-3.93.79-.99,2.73-.02,2.77.58.05.6-.19,1.27-.19,1.27l-.73-.14s.04-.22.11-.56c.07-.36-.87-.72-1.16-.35h0ZM30.44,57.1l-.19,2.24-.78-.03.28-5.31c1.94.04,3.05.31,3.01,1.68-.12,1.87-1.63,1.45-2.33,1.43h0ZM32.38,48.72h-1.3c-.12-4.6.77-13.01-1.65-19.2-1.83-4.69-6.46-6.8-7.49-10.59-1.63-6,1.14-12.49,10.44-12.99,8.06.83,10.53,7.05,9.16,12.84-2.36,5.79-4.73,4.96-7.67,10.73-2.4,6.18-1.49,14.28-1.49,19.22h0ZM46.78,57.23l-.9.31-.28-5.34,1.06-.28,2.61,4.41-.71.47-.87-1.24-.99.37.09,1.3h0ZM36.27,48.72h-1.04c.86-11.81,15.7-9.24,17.05-13.34,2.35,4.06,1.5,7.49-.95,9.24-6.09,4.37-11.92-3.23-15.07,4.1h0ZM41.78,54.68l.47,2.45c.29.57.49.46.93.4.52-.37.41-.74.31-1.21l.9-.12c.23,1.78-.61,1.96-1.24,2.08-1.35.1-1.62-.17-1.99-1.93-.21-1.5-.58-3.09.68-3.38,2.08-.32,1.95.62,2.14,1.27l-.9.16c-.14-.56-.35-.79-.81-.74-.42.19-.59.5-.5,1.02h0ZM39.88,57.23c.04.77-.22,1.29-.71,1.46l-2.11.43-.84-5.12c.43-.07,2.56-.85,3.07.56.25.86,0,1.17-.31,1.55.57.18.76.63.9,1.12h0ZM34.46,31.52c4.7-13.25,15.47-10.9,17.86-4.95,3.27,11.95-7.26,8.68-14.01,13.58-2.55,2.22-3.89,4.76-3.91,8.62h-1.16c-.07-7.77-.2-13.27,1.22-17.25Z"/>
</svg>