<?xml version="1.0" encoding="UTF-8"?>
<svg id="Layer_1" xmlns="http://www.w3.org/2000/svg" version="1.1" viewBox="0 0 64 64">
  <!-- Generator: Adobe Illustrator 29.8.2, SVG Export Plug-In . SVG Version: 2.1.1 Build 3)  -->
  <defs>
    <style>
      .st0 {
        fill: #f15a22;
      }
    </style>
  </defs>
  <path id="path188" class="st0" d="M25.74,43.2l6.82-5.51c-1.14-1.44-2.23-2.88-3.25-4.38C21.41,21.9,16.74,10.28,20.11,0H0v11.09l25.74,32.1Z"/>
  <path id="path192" class="st0" d="M36.49,26.61c.43-3.62,1.53-10.46,8.17-15.54,5.75-4.38,12.96-5.22,19.33-2.52V0H28.49c-2.34,10.41,3.81,21.86,8,26.61"/>
  <path id="path196" class="st0" d="M45.11,16.17l-.03.02c-6.68,5.43-5.04,13.95,1.18,21.59,4.79,5.9,11.2,10.04,17.74,6.9v-25.16c-5.87-6.01-12.91-8.21-18.89-3.35"/>
  <path id="path200" class="st0" d="M0,24.22v39.78h0l19.36-15.66L0,24.22Z"/>
  <path id="path212" class="st0" d="M35.22,40.85c-1.9,1.56-4.25,3.48-6.86,5.61l2.52,3.13c3.64,4.55,8.96,12.43,15.55,10.3l.24.3-4.68,3.82h22.02v-15.13c-11.33,6.16-21.07.55-28.78-8.02"/>
  <path id="path216" class="st0" d="M24.59,54.84l-2.61-3.24c-5.34,4.29-10.95,8.79-15.51,12.4h24.63c-1.6-3.39-4.51-6.65-6.52-9.16"/>
</svg>