<?xml version="1.0" encoding="UTF-8"?>
<svg id="Layer_1" xmlns="http://www.w3.org/2000/svg" version="1.1" viewBox="0 0 64 64">
  <!-- Generator: Adobe Illustrator 29.8.2, SVG Export Plug-In . SVG Version: 2.1.1 Build 3)  -->
  <defs>
    <style>
      .st0 {
        fill: #00529c;
      }
    </style>
  </defs>
  <g id="g246">
    <path id="path248" class="st0" d="M54.21,0H9.79C4.4,0,.03,4.48.03,10.01v43.99c0,5.47,4.29,9.92,9.61,10h44.55c5.39,0,9.77-4.48,9.77-10l.02-43.99c0-5.53-4.37-10.01-9.76-10.01M15.07,58.87l-2.42.03c-2.93,0-5.31-2.41-5.31-5.39v-.42s-.01-40.63-.01-40.63l.02-2.19c.11-2.88,2.3-5.19,5.16-5.19h4.93c4.47,0,8.09,3.88,8.09,8.46,0,2.27-.89,4.32-2.32,5.81l-12.57,12.76,11.78,12c1.52,1.57,2.44,3.62,2.44,5.87,0,4.91-4.37,8.89-9.76,8.89M51.29,58.83h-21.97s2.54-5.5,2.54-8.89c0-4.15-1.38-7.85-3.55-10.29l-7.51-7.66,7.67-7.92c2.28-2.14,3.8-5.95,3.8-10.29,0-3.44-.95-6.48-2.48-8.69h5.32c4.47,0,8.09,3.88,8.09,8.46,0,2.27-.89,4.32-2.32,5.81l-12.33,12.62,25.61,26.11c-.81.51-1.83.74-2.86.74M56.66,50.68l-18.35-18.71,8.74-8.88c1.78-2.22,2.91-5.57,2.91-9.32,0-3.46-.96-6.58-2.51-8.79l3.91.12c2.93,0,5.31,2.41,5.31,5.39,0,0-.01,40.19-.01,40.19Z"/>
  </g>
</svg>