<?xml version="1.0" encoding="UTF-8"?>
<svg id="Layer_1" xmlns="http://www.w3.org/2000/svg" version="1.1" viewBox="0 0 64 64">
  <!-- Generator: Adobe Illustrator 29.8.2, SVG Export Plug-In . SVG Version: 2.1.1 Build 3)  -->
  <defs>
    <style>
      .st0 {
        fill: #f8ad3c;
        fill-rule: evenodd;
      }

      .st1 {
        fill: #00a39d;
      }
    </style>
  </defs>
  <path id="path851" class="st1" d="M10.92,46.33c.85,0,1.54-.11,2.07-.33.54-.22.97-.5,1.27-.84.3-.35.51-.74.63-1.17.11-.43.17-.88.17-1.32,0-.51-.07-.97-.21-1.38-.13-.41-.35-.75-.68-1.04-.32-.28-.74-.5-1.27-.65-.53-.15-1.2-.23-2.01-.23h-4.48v6.96h4.51ZM6.41,28.13v6.9h3.34c.71,0,1.35-.05,1.92-.15.57-.1,1.05-.28,1.44-.54.4-.26.71-.61.91-1.05.21-.45.32-1.01.32-1.69s-.08-1.21-.25-1.65c-.16-.45-.42-.81-.76-1.07-.34-.27-.78-.46-1.31-.58-.52-.12-1.14-.17-1.86-.17h-3.76ZM10.17,23.28c1.91,0,3.53.18,4.87.54,1.34.36,2.43.86,3.28,1.51.85.65,1.46,1.44,1.84,2.38.39.93.59,1.97.59,3.13,0,.63-.09,1.23-.27,1.82-.18.58-.46,1.12-.83,1.63-.38.5-.87.96-1.46,1.38-.59.42-1.31.79-2.14,1.09,1.82.45,3.17,1.17,4.04,2.17.87,1,1.31,2.29,1.31,3.87,0,1.19-.23,2.29-.68,3.32-.46,1.02-1.13,1.92-2.01,2.68-.87.75-1.95,1.35-3.24,1.78-1.29.42-2.76.63-4.42.63H0v-27.94h10.17Z"/>
  <path id="path853" class="st1" d="M41.09,28.98c-.19.31-.39.54-.61.69-.2.15-.47.23-.8.23-.29,0-.61-.09-.95-.27-.33-.19-.71-.4-1.14-.63-.42-.23-.9-.43-1.44-.61-.54-.19-1.16-.29-1.86-.29-1.2,0-2.1.26-2.69.79-.58.51-.87,1.21-.87,2.09,0,.56.18,1.03.53,1.4.35.37.82.69,1.38.96.58.27,1.24.52,1.97.75.75.22,1.5.47,2.28.75.77.27,1.52.59,2.26.96.75.37,1.4.84,1.97,1.42.58.57,1.05,1.28,1.4,2.11.35.82.53,1.81.53,2.97,0,1.29-.22,2.5-.66,3.62s-1.09,2.11-1.93,2.95c-.83.83-1.87,1.49-3.11,1.97-1.23.47-2.62.71-4.19.71-.86,0-1.74-.09-2.64-.27-.89-.18-1.74-.43-2.58-.75-.83-.33-1.62-.72-2.35-1.17-.73-.45-1.37-.94-1.92-1.49l1.9-3.03c.15-.22.35-.4.59-.54.25-.15.52-.23.82-.23.38,0,.76.12,1.14.36.39.24.83.51,1.31.8.49.29,1.06.56,1.69.8.63.24,1.38.36,2.24.36,1.16,0,2.07-.26,2.71-.77.64-.52.97-1.35.97-2.47,0-.65-.18-1.18-.53-1.59-.35-.41-.82-.75-1.4-1.02-.57-.27-1.22-.5-1.95-.71-.73-.2-1.49-.43-2.26-.67-.77-.26-1.52-.56-2.26-.92-.73-.37-1.39-.85-1.97-1.44-.57-.6-1.03-1.34-1.38-2.22-.35-.89-.53-1.99-.53-3.29,0-1.05.21-2.07.63-3.06.42-1,1.03-1.88,1.84-2.66.81-.78,1.8-1.4,2.98-1.86,1.18-.47,2.52-.71,4.04-.71.85,0,1.67.07,2.47.21.81.13,1.57.33,2.29.59.72.26,1.39.57,2.01.94.63.36,1.19.77,1.69,1.23l-1.59,3.01Z"/>
  <path id="path915" class="st0" d="M64,22.12c-4.92-.48-6.65,2.23-7.62,3.57-1.23-5.36-3.31-4.94-5.54-6.29,3.22-1.87,4.12-4.77,4.03-6.93,3.15,2.31,5.35,2.06,8.08,1.31-1.36,4.04-.5,5.19,1.05,8.33h0Z"/>
  <path id="path855" class="st1" d="M53.71,51.23h-6.67v-28.57c4.17.57,6.67,4.02,6.67,7.67v20.9Z"/>
</svg>