<?xml version="1.0" encoding="UTF-8"?>
<svg id="Layer_1" xmlns="http://www.w3.org/2000/svg" version="1.1" xmlns:xlink="http://www.w3.org/1999/xlink" viewBox="0 0 64 64">
  <!-- Generator: Adobe Illustrator 29.8.2, SVG Export Plug-In . SVG Version: 2.1.1 Build 3)  -->
  <defs>
    <style>
      .st0 {
        fill: url(#linear-gradient22);
      }

      .st0, .st1, .st2, .st3, .st4, .st5, .st6, .st7, .st8, .st9, .st10, .st11, .st12, .st13, .st14, .st15, .st16, .st17, .st18, .st19, .st20, .st21, .st22, .st23, .st24, .st25, .st26 {
        stroke-miterlimit: 10;
      }

      .st0, .st1, .st2, .st3, .st4, .st5, .st6, .st7, .st8, .st9, .st10, .st11, .st12, .st13, .st14, .st15, .st16, .st17, .st19, .st20, .st21, .st22, .st23, .st24, .st25, .st26 {
        stroke: #a3822e;
      }

      .st0, .st1, .st3, .st4, .st5, .st6, .st7, .st8, .st9, .st10, .st11, .st12, .st13, .st14, .st15, .st16, .st17, .st19, .st20, .st21, .st22, .st23, .st24, .st25, .st26 {
        stroke-width: .07px;
      }

      .st1 {
        fill: url(#linear-gradient5);
      }

      .st2 {
        fill: none;
        stroke-width: .02px;
      }

      .st3 {
        fill: url(#linear-gradient6);
      }

      .st27, .st18 {
        fill: #fff;
      }

      .st4 {
        fill: url(#linear-gradient4);
      }

      .st5 {
        fill: url(#linear-gradient16);
      }

      .st28 {
        fill: red;
      }

      .st6 {
        fill: url(#linear-gradient2);
      }

      .st7 {
        fill: url(#linear-gradient23);
      }

      .st8 {
        fill: url(#linear-gradient);
      }

      .st9 {
        fill: url(#linear-gradient20);
      }

      .st10 {
        fill: url(#linear-gradient7);
      }

      .st11 {
        fill: url(#linear-gradient19);
      }

      .st12 {
        fill: url(#linear-gradient12);
      }

      .st13 {
        fill: url(#linear-gradient17);
      }

      .st14 {
        fill: url(#linear-gradient9);
      }

      .st15 {
        fill: url(#linear-gradient21);
      }

      .st16 {
        fill: url(#linear-gradient3);
      }

      .st17 {
        fill: url(#linear-gradient24);
      }

      .st18 {
        stroke: #000;
        stroke-width: .12px;
      }

      .st19 {
        fill: url(#linear-gradient1);
      }

      .st20 {
        fill: url(#linear-gradient15);
      }

      .st21 {
        fill: url(#linear-gradient10);
      }

      .st22 {
        fill: url(#linear-gradient14);
      }

      .st23 {
        fill: url(#linear-gradient11);
      }

      .st24 {
        fill: url(#linear-gradient8);
      }

      .st25 {
        fill: url(#linear-gradient13);
      }

      .st26 {
        fill: url(#linear-gradient18);
      }
    </style>
    <linearGradient id="linear-gradient" x1="4786.02" y1="20.67" x2="4790.26" y2="25.73" gradientTransform="translate(4793.5) rotate(-180) scale(1 -1)" gradientUnits="userSpaceOnUse">
      <stop offset="0" stop-color="#f7e349"/>
      <stop offset="1" stop-color="#a3822e"/>
    </linearGradient>
    <linearGradient id="linear-gradient1" x1="56.51" y1="20.67" x2="60.75" y2="25.73" gradientTransform="matrix(1,0,0,1,0,0)" xlink:href="#linear-gradient"/>
    <linearGradient id="linear-gradient2" x1="4780.46" y1="13.39" x2="4785.53" y2="13.74" xlink:href="#linear-gradient"/>
    <linearGradient id="linear-gradient3" x1="4774.23" y1="9.02" x2="4777.72" y2="16.41" xlink:href="#linear-gradient"/>
    <linearGradient id="linear-gradient4" x1="4770.58" y1="11.51" x2="4781.67" y2="11.51" xlink:href="#linear-gradient"/>
    <linearGradient id="linear-gradient5" x1="4786.16" y1="52.34" x2="4776.86" y2="53.77" xlink:href="#linear-gradient"/>
    <linearGradient id="linear-gradient6" x1="4782.22" y1="47.13" x2="4784" y2="55.07" xlink:href="#linear-gradient"/>
    <linearGradient id="linear-gradient7" x1="4785.73" y1="41.69" x2="4788.67" y2="46.75" xlink:href="#linear-gradient"/>
    <linearGradient id="linear-gradient8" x1="4782.68" y1="44.06" x2="4774.6" y2="52.41" xlink:href="#linear-gradient"/>
    <linearGradient id="linear-gradient9" x1="4786.5" y1="34.49" x2="4790.74" y2="44.07" xlink:href="#linear-gradient"/>
    <linearGradient id="linear-gradient10" x1="4786.07" y1="27.03" x2="4792.44" y2="34.83" xlink:href="#linear-gradient"/>
    <linearGradient id="linear-gradient11" x1="4782.42" y1="16.97" x2="4788.24" y2="17.79" xlink:href="#linear-gradient"/>
    <linearGradient id="linear-gradient12" x1="50.96" y1="13.39" x2="56.02" y2="13.74" gradientTransform="matrix(1,0,0,1,0,0)" xlink:href="#linear-gradient"/>
    <linearGradient id="linear-gradient13" x1="44.73" y1="9.02" x2="48.22" y2="16.41" gradientTransform="matrix(1,0,0,1,0,0)" xlink:href="#linear-gradient"/>
    <linearGradient id="linear-gradient14" x1="41.08" y1="11.51" x2="52.16" y2="11.51" gradientTransform="matrix(1,0,0,1,0,0)" xlink:href="#linear-gradient"/>
    <linearGradient id="linear-gradient15" x1="56.66" y1="52.34" x2="47.35" y2="53.77" gradientTransform="matrix(1,0,0,1,0,0)" xlink:href="#linear-gradient"/>
    <linearGradient id="linear-gradient16" x1="52.72" y1="47.13" x2="54.5" y2="55.07" gradientTransform="matrix(1,0,0,1,0,0)" xlink:href="#linear-gradient"/>
    <linearGradient id="linear-gradient17" x1="56.22" y1="41.69" x2="59.17" y2="46.75" gradientTransform="matrix(1,0,0,1,0,0)" xlink:href="#linear-gradient"/>
    <linearGradient id="linear-gradient18" x1="53.17" y1="44.06" x2="45.1" y2="52.41" gradientTransform="matrix(1,0,0,1,0,0)" xlink:href="#linear-gradient"/>
    <linearGradient id="linear-gradient19" x1="57" y1="34.49" x2="61.24" y2="44.07" gradientTransform="matrix(1,0,0,1,0,0)" xlink:href="#linear-gradient"/>
    <linearGradient id="linear-gradient20" x1="56.57" y1="27.03" x2="62.93" y2="34.83" gradientTransform="matrix(1,0,0,1,0,0)" xlink:href="#linear-gradient"/>
    <linearGradient id="linear-gradient21" x1="52.92" y1="16.97" x2="58.73" y2="17.79" gradientTransform="matrix(1,0,0,1,0,0)" xlink:href="#linear-gradient"/>
    <linearGradient id="linear-gradient22" x1="31.95" y1="49.46" x2="31.95" y2="64" gradientTransform="matrix(1,0,0,1,0,0)" xlink:href="#linear-gradient"/>
    <linearGradient id="linear-gradient23" x1="31.95" y1="11.16" x2="31.95" y2="0" gradientTransform="matrix(1,0,0,1,0,0)" xlink:href="#linear-gradient"/>
    <linearGradient id="linear-gradient24" x1="31.95" y1="8.3" x2="31.95" y2="56.27" gradientTransform="matrix(1,0,0,1,0,0)" xlink:href="#linear-gradient"/>
  </defs>
  <path class="st8" d="M7.35,16.76s-1.15-2.65-1.77-2.89-1.94,8.13-1.28,9.94c0,0,3.43,2.7,4,5.04l2.05-2.6,1.37-4.89-4.37-4.6Z"/>
  <path class="st2" d="M8.06,25.76s-1.91-3.98-2.04-9.18"/>
  <path class="st19" d="M56.65,16.76s1.15-2.65,1.77-2.89,1.94,8.13,1.28,9.94c0,0-3.43,2.7-4,5.04l-2.05-2.6-1.37-4.89,4.37-4.6Z"/>
  <path class="st2" d="M55.94,25.76s1.91-3.98,2.04-9.18"/>
  <path class="st6" d="M14.15,10.31s-1.48-2.94-2.21-2.94-2.46,5.06-1.67,7.55c.8,2.49,1.92,2.77,1.64,4.3s4.45-2.66,4.49-3-.27-4.02-.27-4.02l-1.99-1.89Z"/>
  <path class="st16" d="M17.85,4.2s-5.09,1.22-3.32,11.7c1.78,10.49,5.52-1.49,5.52-1.49,0,0,5.5-4.38,3.54-5.43s-5.74-4.79-5.74-4.79Z"/>
  <path class="st4" d="M14.53,15.9s1.7-8.33,5.77-8.75,4.75,4.38,4.75,4.38l-8.62,3.28-1.89,1.1Z"/>
  <path class="st1" d="M10.89,52.99l-2.83.93s2.23,2.28,4.15,1.8,4.31-3.07,4.31-3.07c0,0,.22-1.64-.03-1.72s-5.47,1.16-5.47,1.16l-.12.9Z"/>
  <path class="st3" d="M7.7,46.61l-3.63.07s2.84,4.82,6.26,6c0,0,1.48,1.25,4.24.18,2.77-1.07,3.38-2.91,3.38-2.91l-4.99-4.7s-3.07.34-3.3.38-1.97.98-1.97.98Z"/>
  <path class="st10" d="M11.13,47.16s-4.63.38-6.78-3.38c-2.16-3.76-1.81-5.23-1.81-5.23,0,0-.17-.72,2.54,1.19l6.32.46s.32,1.82.33,2.61.49,3.21.49,3.45c0,.24-1.09.92-1.09.92Z"/>
  <path class="st24" d="M15.58,51.64s-2.99-1.46-4.7-4.95-1.21-4.55-1.21-4.55l2.14-.42s1.25,1.34,1.77,2.61,2.67,4.04,3.18,4.48.55,1.88.55,1.88l-1.73.95Z"/>
  <path class="st14" d="M4.61,31.98s-1.87-1.23-2.63-1.23c0,0-.32,3.22,1.31,6.33,1.63,3.11,3.44,4.74,6.91,5.14,0,0,2.76-5,1.05-6.58-1.71-1.57-6.65-3.66-6.65-3.66Z"/>
  <path class="st21" d="M8.31,28.86s.06-2.51-4.77-5.84c0,0-2.65,7.39,3.4,10.99l1.27.86,1.47-3.32-1.36-2.69Z"/>
  <path class="st23" d="M12.16,19.11s-.04-4.63-4.09-6.39c0,0-2.71,5.36,2.45,8.99,0,0,1.83-1.24,1.64-2.6Z"/>
  <path class="st2" d="M13.78,51.26c-.23.06-2.08-.26-4.74-1.64-.84-.44-1.76-.98-2.73-1.65"/>
  <path class="st2" d="M9.17,45.25s-3.56-2.26-5.1-5.06"/>
  <path class="st2" d="M7.93,38.89s-3.66-2.26-5.41-6.6"/>
  <path class="st2" d="M7.35,31.55s-2.56-2.24-3.28-6.89"/>
  <line class="st2" x1="10.08" y1="19.63" x2="8.48" y2="13.88"/>
  <path class="st12" d="M49.85,10.31s1.48-2.94,2.21-2.94,2.46,5.06,1.67,7.55-1.92,2.77-1.64,4.3-4.45-2.66-4.49-3,.27-4.02.27-4.02l1.99-1.89Z"/>
  <path class="st25" d="M46.15,4.2s5.09,1.22,3.32,11.7c-1.78,10.49-5.52-1.49-5.52-1.49,0,0-5.5-4.38-3.54-5.43s5.74-4.79,5.74-4.79Z"/>
  <path class="st22" d="M49.47,15.9s-1.7-8.33-5.77-8.75-4.75,4.38-4.75,4.38l8.62,3.28,1.89,1.1Z"/>
  <path class="st20" d="M53.11,52.99l2.83.93s-2.23,2.28-4.15,1.8-4.31-3.07-4.31-3.07c0,0-.22-1.64.03-1.72s5.47,1.16,5.47,1.16l.12.9Z"/>
  <path class="st5" d="M56.3,46.61l3.63.07s-2.84,4.82-6.26,6c0,0-1.48,1.25-4.24.18s-3.38-2.91-3.38-2.91l4.99-4.7s3.07.34,3.3.38,1.97.98,1.97.98Z"/>
  <path class="st13" d="M52.87,47.16s4.63.38,6.78-3.38c2.16-3.76,1.81-5.23,1.81-5.23,0,0,.17-.72-2.54,1.19l-6.32.46s-.32,1.82-.33,2.61-.49,3.21-.49,3.45,1.09.92,1.09.92Z"/>
  <path class="st26" d="M48.42,51.64s2.99-1.46,4.7-4.95c1.71-3.49,1.21-4.55,1.21-4.55l-2.14-.42s-1.25,1.34-1.77,2.61-2.67,4.04-3.18,4.48-.55,1.88-.55,1.88l1.73.95Z"/>
  <path class="st11" d="M59.39,31.98s1.87-1.23,2.63-1.23c0,0,.32,3.22-1.31,6.33-1.63,3.11-3.44,4.74-6.91,5.14,0,0-2.76-5-1.05-6.58s6.65-3.66,6.65-3.66Z"/>
  <path class="st9" d="M55.69,28.86s-.06-2.51,4.77-5.84c0,0,2.65,7.39-3.4,10.99l-1.27.86-1.47-3.32,1.36-2.69Z"/>
  <path class="st15" d="M51.84,19.11s.04-4.63,4.09-6.39c0,0,2.71,5.36-2.45,8.99,0,0-1.83-1.24-1.64-2.6Z"/>
  <g>
    <path class="st0" d="M17.15,50.07c-.24-.11-5.47,6.83-5.47,6.83,0,0,6.44,7.1,20.92,7.1s19.63-7.74,19.63-7.74l-5.61-6.81s-9.72,9.63-29.47.62Z"/>
    <g>
      <path d="M17.08,56.36l.05.04c-.01.26.02.47.09.65.07.18.2.33.39.46.14.09.28.14.44.15s.3-.03.45-.1c.14-.07.26-.18.35-.31.14-.21.18-.42.12-.6-.07-.19-.2-.42-.39-.71-.2-.29-.32-.54-.38-.76s0-.46.18-.73c.22-.32.49-.49.82-.52.33-.02.67.07,1,.3.13.09.26.2.36.33.11.13.18.27.21.41-.07.04-.21.15-.43.33l-.05-.03c.04-.18.03-.34-.03-.5-.06-.16-.16-.29-.31-.39-.12-.08-.25-.13-.38-.15-.13-.02-.26,0-.38.05-.12.05-.22.14-.3.26-.14.21-.18.41-.12.6.06.19.2.43.4.72.2.29.33.55.39.77.06.22,0,.45-.16.69-.12.18-.27.32-.43.43-.16.1-.34.16-.53.19s-.38.01-.57-.04c-.19-.05-.37-.14-.55-.26-.14-.09-.28-.22-.41-.4-.13-.17-.21-.33-.23-.48.12-.09.25-.22.41-.39Z"/>
      <path d="M22.38,58.13l-.64,1.3c-.04.07-.06.13-.07.17-.01.04-.01.07,0,.11.01.03.04.06.09.08.04.02.1.04.18.06l-.06.12c-.08,0-.14-.01-.2-.03-.07-.02-.13-.04-.19-.07-.11-.06-.19-.13-.23-.22s-.04-.19,0-.32l-.07.03c-.35.12-.69.1-1-.05-.21-.1-.35-.25-.43-.45-.08-.2-.08-.4.02-.6.1-.2.22-.33.37-.39.15-.06.3-.08.46-.06.16.02.36.07.61.15.19.06.33.09.41.11.09.01.16,0,.21-.02.06-.03.11-.08.15-.17.1-.21.13-.4.07-.57-.06-.17-.19-.31-.4-.41-.12-.06-.24-.09-.36-.1-.12,0-.22.01-.31.04-.09.03-.15.07-.19.11l-.06-.03.15-.31c.4-.06.75-.01,1.06.13.3.15.49.33.56.57.08.23.04.51-.12.82ZM21.35,59.1l.4-.82-.22-.06c-.13-.04-.26-.07-.38-.1-.12-.03-.23-.04-.34-.05-.11,0-.22.02-.31.07-.1.05-.18.13-.24.25-.09.18-.1.33-.05.47.05.14.17.25.34.33.07.03.16.05.27.05.11,0,.2-.01.29-.04.03,0,.06-.02.09-.03.03,0,.06-.02.09-.04.03-.02.05-.03.05-.04Z"/>
      <path d="M22.88,60.54l.8-2.88s.09.03.13.05.07.03.1.03c.03,0,.06.01.1.02s.09.02.14.03l-.14.52c.1-.1.21-.18.31-.24.11-.06.22-.09.34-.11.12-.01.25,0,.39.04.2.06.37.16.5.31.13.15.2.33.21.53.35-.33.72-.44,1.11-.33.36.1.58.27.67.5.09.24.08.55-.03.94l-.48,1.74s-.07-.03-.1-.04-.05-.02-.06-.02-.04-.01-.08-.02c-.04-.01-.06-.02-.07-.02s-.03,0-.07-.01c-.03,0-.07-.01-.11-.02l.45-1.6c.06-.2.09-.38.1-.53s-.03-.29-.1-.4-.2-.2-.39-.25c-.27-.08-.48-.03-.63.13-.15.16-.26.38-.33.66l-.45,1.63s-.07-.03-.1-.04-.05-.02-.06-.02c-.02,0-.04-.01-.08-.02-.04-.01-.07-.02-.08-.02-.02,0-.04,0-.07-.01s-.06-.01-.1-.02l.49-1.77c.08-.29.09-.51.02-.68-.06-.16-.21-.28-.43-.34-.2-.06-.36-.06-.49-.01s-.22.13-.3.24c-.07.11-.13.25-.18.42l-.49,1.75s-.07-.03-.1-.04c-.03,0-.05-.02-.06-.02s-.04-.01-.08-.02c-.03,0-.07-.02-.11-.02-.05,0-.09-.02-.13-.02Z"/>
      <path d="M28.98,61.34l-.16,2.14s-.07-.01-.1-.02c-.03,0-.05,0-.07-.01-.02,0-.04,0-.08,0-.04,0-.07,0-.09,0-.02,0-.04,0-.07,0s-.06,0-.1,0l.34-4.58c.05,0,.1.02.14.02.04,0,.08.01.11.01.03,0,.06,0,.1,0s.09,0,.15,0l-.05.63h.01c.12-.19.25-.34.39-.45.15-.11.38-.16.71-.13.19.01.37.06.52.15.15.09.28.2.38.34.1.14.17.3.21.48.04.17.06.36.04.55-.04.51-.19.9-.46,1.17s-.61.4-1.01.37c-.43-.03-.73-.25-.91-.67h-.01ZM29.04,60.48c-.03.36.03.65.17.88.14.23.36.36.66.38.2.01.37-.03.51-.14.14-.11.24-.27.31-.46s.12-.42.14-.68c.02-.22,0-.43-.04-.62-.04-.19-.12-.35-.24-.47s-.28-.2-.49-.21c-.22-.02-.41.04-.55.17s-.26.3-.33.51-.12.42-.13.64Z"/>
      <path d="M32.03,60.54c-.02-.22,0-.43.07-.62.06-.19.16-.36.3-.51s.29-.26.48-.35.39-.14.62-.16c.28-.02.54.02.77.12.23.11.41.27.55.49s.22.48.25.79c.02.2,0,.39-.05.59-.05.19-.14.37-.26.53s-.28.29-.47.38c-.19.1-.41.16-.65.18-.27.02-.52-.02-.76-.13-.24-.11-.43-.27-.58-.5-.15-.23-.24-.5-.26-.82ZM33.5,59.1c-.25.02-.44.1-.58.25-.14.15-.24.33-.29.55-.05.22-.06.45-.04.69.02.23.07.43.15.62.08.19.2.33.36.44.16.11.35.16.57.14.22-.02.4-.11.53-.27s.22-.36.27-.58c.05-.22.06-.42.05-.62-.01-.16-.04-.31-.08-.45-.04-.15-.1-.28-.19-.4s-.18-.22-.31-.28c-.12-.07-.27-.1-.43-.08Z"/>
      <path d="M38.33,60.49l.06.32c-.14.15-.29.28-.46.38-.17.1-.34.17-.51.21-.28.06-.54.06-.79-.01s-.45-.21-.62-.41c-.17-.2-.29-.45-.36-.76-.06-.29-.07-.55,0-.81s.18-.47.36-.64c.18-.18.42-.3.72-.36.16-.04.33-.04.49-.02.16.02.31.08.45.16s.26.21.36.36c.11.16.18.35.23.58,0,.03.01.05.01.07,0,.02,0,.04,0,.07-.42.08-.83.16-1.24.26l-.86.19s0,.07.02.13c.03.15.09.3.17.42s.17.24.29.32.25.14.39.17c.15.03.3.03.46-.01.31-.07.58-.28.81-.62ZM36.13,59.85l1.62-.36c-.08-.31-.19-.55-.35-.73-.16-.17-.37-.23-.65-.17-.18.04-.32.12-.42.25-.1.13-.17.28-.2.46s-.03.36,0,.54Z"/>
      <path d="M39.54,60.79l-.93-2.84c.05-.01.1-.02.14-.03.04,0,.08-.02.1-.03.02,0,.06-.02.1-.04.04-.02.08-.04.14-.06l.19.6v-.08c.12-.45.31-.71.57-.8.08-.03.14-.04.19-.03l.08.53s-.06,0-.14-.01-.13,0-.17,0c-.07.02-.14.06-.2.11-.06.05-.11.1-.13.17-.06.14-.08.27-.08.38s.04.26.1.45l.5,1.54s-.07.02-.1.02c-.03,0-.05.01-.07.02-.02,0-.04.01-.08.02-.04.01-.06.02-.07.02-.01,0-.03.01-.06.03-.03.01-.06.03-.1.04Z"/>
      <path d="M41.73,60.05l-1.18-2.74c.05-.02.1-.03.14-.05.04-.01.07-.03.1-.04.02-.01.05-.03.09-.05.04-.02.08-.04.13-.07l.23.52c.05-.46.28-.78.68-.96.33-.14.61-.15.83-.04s.41.37.58.76l.72,1.66s-.07.02-.1.03c-.03,0-.05.02-.06.02-.02,0-.04.01-.08.03-.04.02-.06.03-.08.04-.02,0-.04.02-.06.03-.02.01-.05.03-.08.05l-.66-1.53c-.08-.2-.17-.36-.27-.48-.09-.12-.2-.21-.33-.25-.13-.04-.28-.02-.45.05-.28.12-.44.3-.46.54-.03.24.04.55.21.93l.57,1.33s-.07.02-.1.03c-.03,0-.05.02-.07.02-.02,0-.04.01-.07.03-.04.01-.06.03-.07.03,0,0-.03.02-.06.03-.03.02-.06.03-.09.05Z"/>
      <path d="M46.02,55.76l.7,1.27c.04.07.07.12.09.16s.05.05.09.06c.03,0,.07,0,.12-.02.04-.02.09-.06.15-.11l.07.12c-.05.06-.09.11-.13.15-.05.04-.11.08-.16.11-.11.06-.21.08-.31.06-.1-.01-.18-.07-.26-.18l-.02.08c-.1.36-.31.62-.62.79-.2.11-.41.14-.62.1-.21-.05-.37-.17-.48-.36-.11-.19-.14-.37-.11-.53s.1-.29.22-.41c.11-.12.27-.25.47-.41.16-.12.26-.22.33-.28.06-.06.1-.12.11-.19.01-.06,0-.14-.06-.22-.11-.21-.26-.33-.43-.38-.17-.05-.36-.02-.56.09-.12.07-.22.15-.29.24-.07.1-.12.19-.14.28-.02.09-.03.16-.02.22l-.06.03-.17-.3c.18-.36.42-.63.72-.79.29-.16.55-.2.79-.13.23.07.44.26.61.57ZM46.23,57.17l-.44-.8-.17.15c-.11.09-.21.17-.3.25-.09.08-.17.16-.24.25s-.11.19-.13.3c-.02.11,0,.22.07.34.09.17.21.27.35.31s.3,0,.47-.09c.07-.04.13-.1.19-.19.06-.09.11-.18.13-.26,0-.03.02-.06.03-.09.01-.03.02-.06.02-.1,0-.03,0-.06,0-.06Z"/>
    </g>
  </g>
  <g>
    <path class="st7" d="M21.18,11.16s-.75-5.67-3.42-6.97c0,0,13.96-9.44,28.4,0,0,0-3.81,3.52-3.65,6.48l-21.33.48Z"/>
    <g>
      <path d="M25.05,7.54l-.96-4.81,1.38-.28c.35-.07.65-.1.9-.08.24.02.44.08.58.2.15.12.24.3.29.54.03.16.03.31,0,.46s-.08.28-.16.41c-.08.13-.18.24-.3.34-.12.1-.26.19-.41.26.15-.02.3-.03.46-.01.16.01.31.05.46.11.14.06.27.15.38.27.11.12.18.29.22.48.1.5-.03.94-.4,1.32-.11.11-.24.2-.4.28-.16.08-.31.14-.47.18-.16.04-.35.08-.57.13l-1.01.2ZM24.76,2.87l.37,1.86.29-.06c.19-.04.35-.08.48-.13s.26-.11.38-.2c.16-.12.27-.26.33-.42.06-.17.08-.35.04-.54-.04-.21-.12-.38-.24-.49-.12-.11-.27-.17-.46-.19-.18-.02-.41,0-.67.05l-.52.1ZM25.19,4.99l.43,2.16.67-.13c.23-.05.43-.13.59-.26.16-.13.27-.29.34-.47.07-.19.08-.38.04-.59-.08-.39-.26-.64-.55-.75-.29-.11-.66-.12-1.13-.02l-.39.08Z"/>
      <path d="M31.38,4.45l.09,1.67c0,.09.01.16.02.21,0,.05.03.08.06.11.03.03.07.04.14.03.05,0,.12-.02.21-.04v.16c-.07.04-.14.07-.21.09-.08.02-.15.03-.23.03-.14,0-.26-.03-.35-.09-.09-.06-.15-.17-.18-.32l-.06.07c-.29.32-.63.49-1.04.51-.26.01-.49-.06-.69-.21-.2-.15-.3-.36-.32-.62-.01-.25.04-.45.15-.6s.26-.25.43-.32.4-.13.7-.19c.22-.05.38-.09.48-.12.09-.03.16-.08.21-.14.04-.06.06-.15.06-.26-.01-.27-.1-.47-.25-.61-.15-.14-.36-.2-.63-.19-.16,0-.3.04-.42.11-.12.06-.22.13-.28.21-.07.08-.11.15-.13.22h-.08s-.02-.4-.02-.4c.37-.29.75-.44,1.14-.46.38-.02.68.06.88.26.21.19.32.49.34.89ZM30.89,6.01l-.06-1.05-.25.07c-.16.04-.3.07-.43.11-.13.04-.25.08-.37.14s-.21.14-.28.24c-.07.1-.1.23-.1.39.01.22.08.39.21.5.13.11.31.15.53.14.09,0,.19-.04.3-.1.11-.06.2-.13.26-.2.02-.02.05-.05.07-.08.03-.03.05-.06.07-.09.02-.03.03-.05.03-.07Z"/>
      <path d="M32.52,6.72l.27-3.43c.06,0,.11.02.16.03s.09.01.12.02c.03,0,.07,0,.12,0,.05,0,.11,0,.17,0l-.05.65c.3-.44.7-.65,1.21-.6.41.03.7.17.86.41.16.24.22.6.18,1.08l-.17,2.07s-.08-.02-.12-.02c-.03,0-.06,0-.08-.01-.02,0-.05,0-.09-.01-.04,0-.08,0-.1,0s-.05,0-.08,0c-.03,0-.07,0-.11,0l.15-1.91c.02-.25.02-.46-.01-.63s-.1-.32-.21-.43c-.11-.11-.27-.18-.48-.19-.35-.03-.61.07-.76.3s-.25.58-.29,1.06l-.13,1.66s-.09-.02-.12-.02-.06,0-.08-.01c-.02,0-.05,0-.09-.01-.04,0-.07,0-.09,0s-.04,0-.08,0c-.04,0-.08,0-.12,0Z"/>
      <path d="M38.04,1.94l-.68,3.15c-.02.09-.03.15-.03.18,0,.03,0,.05.02.06.13.03.36-.07.7-.28l.53-.35.68-.49c.06.02.11.03.16.05.05.02.09.03.12.03.03,0,.06.01.11.02.05,0,.1.01.17.02v.05c-.1.05-.18.09-.24.13-.07.03-.22.11-.45.24-.23.12-.46.25-.69.38s-.38.22-.47.28c.06.1.13.24.23.42s.21.39.34.63.25.46.35.65.21.39.31.57v.03c-.07-.02-.11-.03-.15-.04-.03,0-.06-.02-.09-.03-.03,0-.06-.02-.11-.03-.05-.01-.09-.02-.11-.02s-.05,0-.1-.01c-.05,0-.1-.01-.15-.02-.08-.16-.2-.41-.38-.74-.18-.33-.39-.71-.62-1.13-.05-.09-.1-.14-.14-.14-.06-.01-.11.07-.14.24l-.31,1.44s-.08-.03-.11-.03c-.03,0-.06-.02-.08-.02-.02,0-.05-.01-.09-.02-.04,0-.07-.02-.08-.02-.01,0-.04,0-.08,0-.04,0-.08,0-.12-.01l1.14-5.28c.06.02.11.03.16.05s.09.03.12.03c.03,0,.07.01.12.02.05,0,.1.01.17.02Z"/>
    </g>
  </g>
  <g>
    <circle class="st17" cx="31.95" cy="32.28" r="23.98"/>
    <g>
      <g>
        <circle class="st27" cx="32.31" cy="31.55" r="18.52"/>
        <path d="M32.31,50.69c-10.55,0-19.14-8.58-19.14-19.14s8.58-19.14,19.14-19.14,19.14,8.58,19.14,19.14-8.58,19.14-19.14,19.14ZM32.31,13.65c-9.87,0-17.9,8.03-17.9,17.9s8.03,17.9,17.9,17.9,17.9-8.03,17.9-17.9-8.03-17.9-17.9-17.9Z"/>
      </g>
      <path class="st28" d="M32.31,15.13c-9.07,0-16.42,7.35-16.42,16.42s7.35,16.42,16.42,16.42,16.42-7.35,16.42-16.42-7.35-16.42-16.42-16.42ZM31.75,41.45h.42c-.15.17-.24.27-.24.27-.06-.09-.12-.18-.18-.27Z"/>
      <path class="st18" d="M44.28,23.73c-8.11-2.84-12.32,2.22-12.32,2.22-6.53-5.37-12.8-1.43-12.8-1.43,1.82,8.38,8.22,9.27,8.22,9.27-1.99,6.5,4.58,11.84,4.58,11.84,5.54-3.15,5.3-12.08,5.3-12.08,6.44-2.36,7.01-9.82,7.01-9.82ZM31.77,29.64c.44-.6,1.85,2.27,1.58,2.54-.27.28-2.62.39-2.82-.15-.21-.54,1.24-2.39,1.24-2.39ZM28.1,31.23c-4.31-1.13-5.47-5.01-5.47-5.01,4.91-.73,7.54,1.69,7.54,1.69-2.07,1.23-2.07,3.32-2.07,3.32ZM31.79,41.39c-2.3-3.14-2.04-7.06-2.04-7.06,1.92.55,4.35,0,4.35,0,.54,4.21-2.31,7.06-2.31,7.06ZM36.26,31.23c-.49-1.61-2.44-3.47-2.44-3.47,3.25-2.72,7.19-1.87,7.19-1.87-1.4,3.63-4.74,5.34-4.74,5.34Z"/>
    </g>
    <g>
      <path d="M24.82,52.99h.03c.01.12.05.22.11.31.06.09.13.16.22.19.06.03.13.04.21.04.07,0,.14-.03.2-.06.06-.04.11-.09.14-.16.05-.12.05-.21,0-.29-.05-.08-.15-.17-.29-.29s-.23-.22-.28-.32c-.05-.1-.04-.23.03-.38.08-.18.2-.3.37-.35.17-.05.34-.03.53.05.09.04.17.09.25.15.07.06.13.11.15.15-.07.07-.15.14-.22.24l-.03-.02s0-.1-.02-.16-.04-.11-.07-.15c-.03-.04-.07-.08-.12-.1-.1-.04-.2-.05-.29-.03-.09.03-.16.09-.21.19-.05.11-.05.2,0,.28.05.08.14.17.28.29.13.12.23.23.28.33s.05.22-.02.36c-.06.13-.14.23-.26.29s-.23.09-.37.09c-.13,0-.26-.03-.37-.08-.18-.08-.33-.2-.44-.34.11-.13.18-.21.21-.25Z"/>
      <path d="M28.23,53.2l-.27.96c-.02.05-.02.09-.03.12,0,.03,0,.05.01.07.01.02.04.04.07.05.03,0,.07.01.13.02l-.03.09c-.05,0-.1.01-.14,0-.05,0-.09-.01-.13-.02-.08-.03-.14-.06-.18-.12-.04-.05-.05-.12-.04-.22l-.05.03c-.22.12-.45.16-.68.09-.15-.04-.27-.12-.35-.25-.08-.12-.1-.26-.06-.41.04-.14.11-.25.2-.31s.19-.09.3-.1c.11,0,.25,0,.43.02.14.01.23.02.29.02s.11-.01.14-.04c.04-.03.06-.07.08-.14.04-.15.03-.29-.03-.39s-.17-.18-.32-.22c-.09-.03-.18-.03-.26-.02-.08.01-.15.03-.2.07-.05.03-.09.07-.11.1h-.05s.06-.24.06-.24c.26-.09.51-.1.73-.04.22.06.37.16.45.31s.09.34.03.57ZM27.66,53.99l.17-.6h-.15c-.1-.02-.18-.03-.27-.03-.08,0-.16,0-.23,0-.08.01-.14.04-.2.08-.06.05-.1.11-.13.2-.04.13-.03.24.03.32s.14.15.27.18c.05.01.11.01.19,0s.14-.04.19-.07c.02,0,.04-.02.06-.03.02,0,.04-.02.06-.04.02-.01.03-.02.03-.03Z"/>
      <path d="M28.82,54.7l.39-3.19s.07.01.1.02c.03,0,.05.01.07.01.02,0,.04,0,.07,0,.03,0,.06,0,.1,0l-.19,1.55c.19-.26.43-.37.73-.33.24.03.41.12.5.27.09.15.12.36.08.64l-.15,1.23s-.05-.01-.07-.01c-.02,0-.03,0-.04,0s-.03,0-.05,0c-.03,0-.05,0-.06,0-.01,0-.03,0-.05,0-.02,0-.04,0-.07,0l.14-1.13c.03-.25.02-.43-.04-.55s-.17-.19-.35-.21c-.37-.05-.58.16-.64.61l-.14,1.16s-.05-.01-.07-.01c-.02,0-.03,0-.05,0-.01,0-.03,0-.05,0-.03,0-.04,0-.05,0,0,0-.02,0-.05,0-.02,0-.05,0-.07,0Z"/>
      <path d="M32.86,53.58v.99c.02.06.02.1.02.12,0,.03.01.05.03.07.02.02.04.02.08.02.03,0,.07,0,.13-.02v.09s-.09.04-.13.05c-.05,0-.09.01-.14.01-.08,0-.15-.02-.21-.06-.05-.04-.09-.1-.1-.2l-.04.04c-.18.18-.39.27-.63.28-.16,0-.29-.04-.4-.14-.11-.1-.17-.22-.17-.37,0-.15.03-.27.1-.35.07-.08.16-.14.26-.18.1-.03.24-.07.42-.1.13-.02.23-.04.29-.06.06-.02.1-.04.13-.08s.04-.08.04-.15c0-.16-.05-.28-.14-.37s-.21-.13-.37-.13c-.09,0-.18.02-.25.05s-.13.07-.17.12c-.04.05-.07.09-.08.13h-.05s0-.24,0-.24c.23-.16.46-.24.69-.25.23,0,.4.05.52.17.12.12.18.3.18.54ZM32.53,54.49v-.63s-.16.03-.16.03c-.09.02-.18.04-.26.06-.08.02-.15.04-.22.08-.07.03-.13.08-.17.14-.04.06-.07.14-.07.23,0,.13.04.23.11.3.07.07.18.1.31.1.05,0,.11-.02.18-.05.07-.03.12-.07.16-.11.01-.01.03-.03.05-.04s.03-.03.05-.05.02-.03.02-.04Z"/>
      <path d="M33.74,54.86l-.45-3.17s.07,0,.1,0c.03,0,.05,0,.07,0,.02,0,.04,0,.07-.01.03,0,.06-.01.1-.02l.22,1.57c.07-.15.16-.27.27-.37.11-.09.24-.15.4-.17.19-.03.35,0,.5.07.14.08.25.19.34.33.08.14.14.3.16.46.02.14.02.29,0,.42-.02.14-.07.26-.14.38s-.16.21-.27.29c-.11.08-.24.13-.39.15-.27.04-.48-.03-.64-.22-.03.03-.07.07-.11.12-.04.05-.09.11-.14.18h-.08ZM34.44,52.86c-.22.03-.37.15-.45.35-.07.2-.09.45-.05.73.02.15.06.28.13.39.06.11.15.19.24.25.1.05.21.07.33.05.11-.02.21-.06.28-.13s.13-.16.17-.26.06-.21.07-.32,0-.22-.01-.33c-.02-.16-.06-.3-.12-.41-.06-.12-.14-.2-.23-.26-.1-.06-.21-.08-.35-.06Z"/>
      <path d="M37.4,52.78l.25.96c.01.05.03.09.04.12s.03.04.05.06c.02.01.05.01.08,0,.03,0,.07-.02.12-.05l.02.09s-.08.06-.11.08c-.04.02-.08.04-.13.05-.08.02-.16.02-.22,0-.06-.02-.11-.08-.14-.17l-.03.05c-.13.22-.31.36-.55.42-.15.04-.29.03-.43-.04-.13-.07-.22-.17-.26-.32-.04-.15-.03-.27.02-.37.05-.1.12-.18.21-.24.09-.06.22-.12.38-.19.12-.05.21-.1.26-.13.05-.03.09-.07.1-.1.02-.04.02-.09,0-.16-.04-.16-.11-.26-.22-.33s-.24-.07-.39-.03c-.09.02-.17.06-.23.11-.06.05-.11.1-.14.16-.03.05-.05.1-.05.14h-.05s-.06-.22-.06-.22c.18-.21.39-.34.61-.4.22-.06.4-.04.55.04.14.09.25.25.31.48ZM37.3,53.74l-.16-.61-.14.07c-.09.04-.17.08-.24.12s-.14.08-.2.13c-.06.05-.1.11-.13.18-.03.07-.03.15,0,.24.03.13.09.22.18.27.09.05.2.05.33.02.05-.01.11-.04.16-.09.06-.05.1-.1.13-.15.01-.02.02-.04.03-.05s.02-.04.03-.06c0-.02.01-.04.01-.04Z"/>
      <path d="M37.71,51.5l.28-.24.18.53.43-.15s.02.07.02.08c0,.02.02.05.03.07l-.43.15.35,1.02.05.15c.05.15.11.27.19.35.07.08.17.1.29.06.03,0,.08-.04.17-.09l.03.1c-.12.09-.22.16-.32.19-.07.03-.14.04-.21.04-.06,0-.12-.02-.18-.05s-.11-.09-.16-.17c-.05-.08-.1-.18-.14-.3l-.4-1.18-.25.09s0-.05-.02-.08c-.01-.04-.02-.06-.04-.07l.25-.09-.14-.4Z"/>
    </g>
  </g>
  <path class="st2" d="M50.22,51.26c.23.06,2.08-.26,4.74-1.64.84-.44,1.76-.98,2.73-1.65"/>
  <path class="st2" d="M54.83,45.25s3.56-2.26,5.1-5.06"/>
  <path class="st2" d="M56.07,38.89s3.66-2.26,5.41-6.6"/>
  <path class="st2" d="M56.65,31.55s2.56-2.24,3.28-6.89"/>
  <line class="st2" x1="53.92" y1="19.63" x2="55.52" y2="13.88"/>
</svg>