<?xml version="1.0" encoding="UTF-8"?>
<svg id="Layer_1" xmlns="http://www.w3.org/2000/svg" version="1.1" viewBox="0 0 64 64">
  <!-- Generator: Adobe Illustrator 29.8.2, SVG Export Plug-In . SVG Version: 2.1.1 Build 3)  -->
  <defs>
    <style>
      .st0 {
        fill: #790008;
      }

      .st1 {
        fill: #fff;
      }

      .st2 {
        fill: #ed3024;
      }
    </style>
  </defs>
  <path class="st0" d="M0,0h64c0,21.33,0,42.66,0,64-21.33,0-42.66,0-64,0V0M8.52,12.01c4.98,6.67,10.03,13.28,15.04,19.93-4.96,6.68-10.05,13.26-15.02,19.93,11.36.05,22.71,0,34.07.02,5.11-6.61,10.04-13.37,15.19-19.96h-.1c-5.02-6.65-10.05-13.28-15.06-19.93-11.37,0-22.75-.01-34.12,0Z"/>
  <g id="_x23_ffffffff">
    <path class="st1" d="M8.52,12.01c11.37-.02,22.75,0,34.12,0,5.01,6.65,10.05,13.28,15.06,19.93-11.38.02-22.77.01-34.15,0-5-6.65-10.06-13.26-15.04-19.93Z"/>
  </g>
  <g id="_x23_ed3024ff">
    <path class="st2" d="M23.56,31.94c11.38,0,22.77.02,34.15,0h.1c-5.15,6.59-10.07,13.35-15.19,19.96-11.36-.02-22.71.02-34.07-.02,4.97-6.67,10.05-13.26,15.02-19.93Z"/>
  </g>
</svg>