<?xml version="1.0" encoding="UTF-8"?>
<svg id="Layer_1" xmlns="http://www.w3.org/2000/svg" version="1.1" viewBox="0 0 64 64">
  <!-- Generator: Adobe Illustrator 29.8.2, SVG Export Plug-In . SVG Version: 2.1.1 Build 3)  -->
  <defs>
    <style>
      .st0 {
        fill: #008ceb;
      }
    </style>
  </defs>
  <path class="st0" d="M32,0C14.33,0,0,14.33,0,32s14.33,32,32,32,32-14.33,32-32S49.67,0,32,0ZM50.66,32.18l-.02-.04v9.01c0,.59-.25.71-.74.42-.66-.39-1.34-.74-2.05-1.04-2.13-.85-4.45-1.16-6.73-.9-2.49.32-4.94.94-7.29,1.83-2.34.79-4.64,1.65-7.03,2.31-1.98.59-4.04.86-6.11.8-2.29-.09-4.51-.78-6.45-2.01-.49-.3-.79-.84-.77-1.42v-17.7c0-.29,0-.63.26-.77s.52.09.74.24c2.1,1.42,4.59,2.16,7.12,2.11,1.81-.08,3.6-.41,5.32-.99,2.44-.76,4.79-1.76,7.19-2.61,1.86-.71,3.78-1.31,5.72-1.76,3.38-.79,6.93-.13,9.8,1.81.66.4,1.05,1.14,1.03,1.92v8.79Z"/>
</svg>