<?xml version="1.0" encoding="UTF-8"?>
<svg id="Layer_1" xmlns="http://www.w3.org/2000/svg" version="1.1" viewBox="0 0 64 64">
  <!-- Generator: Adobe Illustrator 29.8.2, SVG Export Plug-In . SVG Version: 2.1.1 Build 3)  -->
  <defs>
    <style>
      .st0 {
        fill: #006ab4;
      }

      .st1 {
        fill: #fff;
      }

      .st2 {
        fill: #c11d2a;
      }

      .st3 {
        fill: #d61c24;
      }

      .st4 {
        fill: #ffcf21;
      }
    </style>
  </defs>
  <path id="path6475" class="st3" d="M62.5,21.61H1.5C.67,21.61,0,22.29,0,23.11v4.96h64v-4.96c0-.82-.67-1.5-1.5-1.5"/>
  <path id="path6477" class="st0" d="M0,35.23h64v-6.46H0v6.46Z"/>
  <path id="path6481" class="st4" d="M0,40.89c0,.82.67,1.5,1.5,1.5h61.01c.82,0,1.5-.67,1.5-1.5v-4.96H0v4.96Z"/>
  <path id="path6485" class="st1" d="M54.47,25.97l-.24-.08c-4.69-1.58-12.99-3.26-22.25-3.26s-17.57,1.69-22.25,3.26c-1.45.47-2.01,1.53-2.05,2.28v7.6s0,.07,0,.07c.04.76.6,1.82,2.06,2.29,4.69,1.58,12.99,3.26,22.25,3.26s17.56-1.68,22.25-3.26l.25-.08c1.18-.47,1.86-1.36,1.86-2.44v-7.18c0-1.08-.68-1.97-1.87-2.44"/>
  <path id="path6489" class="st3" d="M54.02,27.13s-.11-.04-.19-.07c-4.02-1.35-12.22-3.2-21.86-3.2s-17.83,1.85-21.86,3.2c-1.02.33-1.19.98-1.21,1.18v7.52c.01.2.19.85,1.21,1.18,4.03,1.35,12.22,3.2,21.86,3.2s17.83-1.84,21.86-3.2c.08-.03.15-.05.19-.07.36-.14,1.08-.5,1.08-1.28v-7.18c0-.79-.72-1.15-1.08-1.29M53.83,33.1v1.6c0,.54-.21,1.07-1.1,1.28-2.88.66-11.1,2.21-20.72,2.21s-17.84-1.55-20.72-2.21c-.89-.22-1.1-.92-1.1-1.28v-5.39c0-.36.21-1.07,1.1-1.28,2.88-.66,11.1-2.21,20.72-2.21s17.84,1.54,20.72,2.21c.9.22,1.11.74,1.1,1.28v3.79Z"/>
  <path id="path6497" class="st0" d="M51.91,34.14s-.05,0-.07.01v-.02l-.07.06c-.21.17-.42.29-.62.37-.02,0-.03,0-.05.02h-.01s-.04.02-.05.02h-.01s-.03.01-.05.01h-.02s-.02.01-.03.01h-.02s-.09.02-.13.02c-.27,0-.31-.19-.32-.22-.02-.15.03-.38.13-.68l.02-.05c.02-.06.04-.12.07-.2.03-.07.06-.15.1-.24l.38-1.01h.1s.02,0,.02,0h.46s.35-.95.35-.95h-.58l.8-2.1h-1.13l-.77,2.1h-.55l-.36.94h.58l-.03.08s-.36.93-.53,1.34c-.03.09-.08.18-.13.27-.11.2-.45.66-1.07.71-.06,0-.12,0-.17,0-.7,0-.86-.32-.91-.43h0s.05-.04.05-.04c.01,0,.03-.01.04-.02.33-.19.67-.39.84-.56.05-.04.1-.09.15-.13.17-.17.32-.35.43-.55,0,0,.57-.88-.04-1.41,0,0-.25-.21-.67-.21-.22,0-.44.05-.66.16-.01,0-.12.06-.27.17l-.11.09s-.02.02-.03.03c-.02.02-.04.04-.07.06l-.04.03s-.02.03-.04.04v.02c-.41.39-1.02,1.22-.76,2.32v.03c-.41.26-.6.35-.86.35-.05,0-.1,0-.15,0-.08,0-.14-.04-.18-.09-.1-.13-.05-.35-.05-.36h0s0-.02,0-.03c0,0,.34-.98.66-1.34v-.02s-.08-.64-.08-.64h-.04s-.08,0-.13,0c-.26,0-.61-.05-.8-.3l-.04-.05.64-.62h-.4s-.28-.01-.47-.18l-.25-.22-.65.93v.02c.05.16.03.58-.32,1.14-.42.63-.81,1.04-1.18,1.26-.18.1-.3.14-.4.14h-.02c-.06,0-.09-.04-.1-.05-.03-.05-.03-.1,0-.19l1.02-2.71h-.76c-.3,0-.4.18-.41.2l-.04.08-.06-.06c-.15-.17-.37-.2-.53-.2h-.03c-.4.03-1,.23-1.62.98,0,0-.27.27-.52.78v.02c-.25.41-.3.82-.31.87v.03s-.61.29-.61.29c0,0-.02.01-.05.02-.03.01-.05.02-.08.03h0s-.04.01-.07.02c-.09.01-.15-.01-.19-.07-.07-.11-.01-.28,0-.33l.5-1.32c.18-.49.2-.87.05-1.09-.13-.19-.34-.22-.44-.23h0s-.04,0-.04,0h-.04s0,0-.02,0c-.5.07-1.04.54-1.06.56l-.07.06-.03-.09s-.17-.57-.74-.57c-.04,0-.1,0-.15.01,0,0-.58.12-.99.51l-.11.11v-.16s.03-.21-.09-.34c-.14-.15-.4-.16-.78-.02,0,0-.42.18-.67.29l-1.15.47.02.04c.07.12.12.25.16.37l.02.05,1.21-.38-1.13,3.06h1.23s.83-2.14.83-2.14c0,0,.17-.51.51-.51.06,0,.11.02.13.06.08.12,0,.41-.05.5-.05.14-.74,1.95-.76,2.02l-.02.06h.24s.62,0,.62,0h.45s.83-2.14.83-2.14c0,0,.17-.51.51-.51.06,0,.1.02.13.06.08.12,0,.41-.05.5-.02.04-.08.22-.23.59l-.06.17c-.06.18-.12.45-.09.71.01.11.04.2.08.29.01.03.02.05.03.07l.03.05h0s.06.07.11.1h0s.11.05.22.07h.06c.09,0,.27-.02.68-.23l1.17-.6.02.07c.05.18.3.7.78.77.07,0,.13.02.19.02h.06c.14,0,.62-.02.91-.33l.1-.11.03.15s.08.28.35.28h.02s.01,0,.02,0c.03,0,.09,0,.16,0,.23-.02.44-.12.93-.4.76-.42,1.25-1.07,1.65-1.64.03-.04.04-.07.04-.07l.16-.22.03-.04c.18-.22.34-.33.47-.33h.01c.08,0,.18.05.18.18,0,.03,0,.12-.1.28,0,0-.6,1.03-.54,1.58.04.33.23.52.6.61l.12.03c.07.01.19.02.35.02.34,0,.87-.06,1.66-.58l.04-.03.03.04c.37.48.91.57,1.29.57h.15s.04,0,.08,0c.38,0,.83-.15,1.34-.43l.05-.03.02.06s0,0,0,.02c.1.14.34.38.94.38.22,0,.43-.03.64-.08h.03s0,0,0,0h.02c.57-.13,1.11-.68,1.26-.84l.02-.02-.02-.03s-.12-.18-.28-.18M47.93,32.14s.07.02.09.05c.04.07,0,.18-.01.22-.05.14-.2.34-.27.42h-.01c-.29.34-.5.51-.61.51-.02,0-.05,0-.07-.02-.01-.02-.02-.03-.03-.05-.03-.08.02-.21.13-.41.04-.06.1-.17.1-.17.1-.14.22-.27.36-.37.19-.15.27-.17.31-.17M39.4,34.34s-.08,0-.11-.03c-.03-.02-.08-.06-.1-.16-.06-.23.06-.66.31-1.09.22-.39.58-.81.85-.81.04,0,.08,0,.11.03.11.07.14.24.09.49-.04.23-.15.49-.3.75-.22.39-.58.81-.85.81"/>
  <path id="path6501" class="st0" d="M26.3,34.23s-.1.03-.22.03c0,0-.02,0-.03,0-.07,0-.12-.02-.15-.07-.03-.05-.02-.11.01-.19l1.81-4.83h-1.11l-.83,2.22-.05-.02s-.24-.08-.59-.08c-.51,0-1.24.16-1.85.91,0,0-.52.6-.68,1.3,0,.01-.01.06-.03.14v.03c-.01.08-.02.16-.03.25v.04s-.54.25-.54.25c0,0-.02,0-.05.02-.04.02-.07.02-.09.03h0s-.04.01-.06.02c-.1.01-.15-.01-.19-.07-.07-.1-.02-.27,0-.33l.5-1.33s.38-.84-.1-1.19c-.01,0-.1-.06-.22-.08h-.01c-.06-.01-.13-.01-.2,0h-.02s0,0-.02,0h-.02c-.48.07-1,.53-1.06.58l-.07.06-.03-.09s-.18-.57-.74-.57h-.05s-.02,0-.03,0h-.06s-.17.04-.41.15c-.09.04-.17.08-.26.13-.25.13-.6.38-1.05.68l-.27.16-.13.07,1.74-4.42-3.1.56c-.08.02-1.98.39-2.38,1.44-.03.07-.31.76.14,1.43,0,0,.4.59,1.17.59,0,0,.02,0,.05,0,.17,0,.74-.06,1.02-.77l.02-.06h-.06c-.08,0-.73-.06-.87-.61-.04-.13-.12-.58.55-.94.03-.01.76-.37,1.88-.56l.1-.02-.03.1-1.19,2.96s-.62,1.95-2.32,2.16c-.09.01-.18.02-.27.02h-.08l-.17-.02c-.16-.04-1-.28-1.2-1.26v-.07s-.07.05-.07.05c-.21.17-.56.5-.59.89-.02.23.08.46.3.67.49.46,1.07.7,1.72.7h.22c.39,0,1.16-.09,1.94-.72l.14-.11s.03-.02.03-.02c.42-.35,1.47-1.22,1.59-1.32.21-.17.64-.46.9-.46.08,0,.13.02.17.07v.02c.06.11.05.25-.02.44l-.8,2.11h.81,0,.44l.9-2.31s.16-.33.42-.33c.02,0,.04,0,.07,0,.18.1.08.42.03.56l-.31.83s-.03.06-.06.16c-.05.18-.11.53.12.83.04.04.08.09.13.13.01.01.03.02.05.04h0s.11.05.23.07c.1.01.2,0,.66-.23l1.18-.59.02.07c.1.45.35.7.78.76.07,0,.13.01.2.01h.06c.14,0,.62-.02.91-.33l.09-.1v.14s.03.29.38.29c.22,0,.53-.1.83-.26l1.56-.73-.16-.41-.95.34ZM23.97,34.34s-.08-.01-.11-.03c-.03-.02-.08-.06-.11-.16-.06-.23.06-.66.31-1.09.23-.39.59-.81.85-.81.04,0,.08,0,.11.03.11.07.14.24.1.49-.04.22-.15.49-.3.75-.22.39-.59.81-.85.81"/>
  <path id="path6505" class="st3" d="M31.26,33.19c0,1.16-.91,2.11-2.03,2.11s-2.04-.95-2.04-2.11.91-2.11,2.04-2.11,2.03.94,2.03,2.11M29.23,30.77c-1.29,0-2.34,1.08-2.34,2.42s1.05,2.42,2.34,2.42,2.34-1.09,2.34-2.42-1.05-2.42-2.34-2.42"/>
  <path id="path6509" class="st2" d="M30.71,33.19c0,.85-.66,1.53-1.48,1.53s-1.48-.69-1.48-1.53.66-1.53,1.48-1.53,1.48.69,1.48,1.53M29.23,31.34c-.98,0-1.79.83-1.79,1.85s.8,1.85,1.79,1.85,1.78-.83,1.78-1.85-.8-1.85-1.78-1.85"/>
  <path id="path6513" class="st3" d="M30.17,33.19c0,.54-.42.97-.94.97s-.94-.43-.94-.97.42-.97.94-.97.94.44.94.97M29.23,31.9c-.68,0-1.24.58-1.24,1.29s.56,1.29,1.24,1.29,1.24-.58,1.24-1.29-.56-1.29-1.24-1.29"/>
</svg>