<?xml version="1.0" encoding="UTF-8"?>
<svg id="Layer_1" xmlns="http://www.w3.org/2000/svg" version="1.1" xmlns:xlink="http://www.w3.org/1999/xlink" viewBox="0 0 64 64">
  <!-- Generator: Adobe Illustrator 29.8.2, SVG Export Plug-In . SVG Version: 2.1.1 Build 3)  -->
  <defs>
    <style>
      .st0 {
        fill: url(#linear-gradient2);
      }

      .st1 {
        fill: url(#linear-gradient1);
      }

      .st2 {
        fill: url(#linear-gradient4);
      }

      .st3 {
        fill: url(#linear-gradient3);
      }

      .st4 {
        fill: url(#linear-gradient);
      }
    </style>
    <linearGradient id="linear-gradient" x1="174.72" y1="-118.17" x2="184.37" y2="-118.17" gradientTransform="translate(-313.76 -207.13) scale(2.05 -2.05)" gradientUnits="userSpaceOnUse">
      <stop offset="0" stop-color="#007940"/>
      <stop offset=".23" stop-color="#00873f"/>
      <stop offset=".74" stop-color="#40a737"/>
      <stop offset="1" stop-color="#5cb531"/>
    </linearGradient>
    <linearGradient id="linear-gradient1" x1="174.72" y1="-116.68" x2="184.36" y2="-116.68" xlink:href="#linear-gradient"/>
    <linearGradient id="linear-gradient2" x1="174.72" y1="-115.04" x2="184.37" y2="-115.04" xlink:href="#linear-gradient"/>
    <linearGradient id="linear-gradient3" x1="153.13" y1="-116.67" x2="162.92" y2="-116.67" gradientTransform="translate(-313.76 -207.13) scale(2.05 -2.05)" gradientUnits="userSpaceOnUse">
      <stop offset="0" stop-color="#1f286f"/>
      <stop offset=".48" stop-color="#004e94"/>
      <stop offset=".83" stop-color="#0066b1"/>
      <stop offset="1" stop-color="#006fbc"/>
    </linearGradient>
    <linearGradient id="linear-gradient4" x1="163.87" y1="-116.69" x2="173.39" y2="-116.69" gradientTransform="translate(-313.76 -207.13) scale(2.05 -2.05)" gradientUnits="userSpaceOnUse">
      <stop offset="0" stop-color="#6c2c2f"/>
      <stop offset=".17" stop-color="#882730"/>
      <stop offset=".57" stop-color="#be1833"/>
      <stop offset=".86" stop-color="#dc0436"/>
      <stop offset="1" stop-color="#e60039"/>
    </linearGradient>
  </defs>
  <path id="path6338" class="st4" d="M48.21,37.15h4.62c.13,0,.44-.04.57-.04.88-.18,1.63-.97,1.63-2.07s-.75-1.85-1.63-2.07c-.13-.04-.4-.04-.57-.04h-4.62v4.22h0Z"/>
  <path id="path6349" class="st1" d="M52.3,7.98c-4.4,0-8.01,3.56-8.01,8.01v8.31h11.3c.26,0,.57,0,.79.04,2.55.13,4.44,1.45,4.44,3.74,0,1.8-1.28,3.34-3.65,3.65v.09c2.6.18,4.57,1.63,4.57,3.87,0,2.42-2.2,4-5.1,4h-12.4v16.27h11.74c4.4,0,8.01-3.56,8.01-8.01V7.98h-11.7,0Z"/>
  <path id="path6360" class="st0" d="M54.45,28.61c0-1.06-.75-1.76-1.63-1.89-.09,0-.31-.04-.44-.04h-4.18v3.87h4.18c.13,0,.4,0,.44-.04.88-.13,1.63-.84,1.63-1.89Z"/>
  <path id="path6371" class="st3" d="M8.05,7.98C3.65,7.98.04,11.55.04,15.99v19.75c2.24,1.1,4.57,1.8,6.91,1.8,2.77,0,4.27-1.67,4.27-3.96v-9.33h6.86v9.28c0,3.61-2.24,6.55-9.85,6.55-4.62,0-8.23-1.01-8.23-1.01v16.85h11.74c4.4,0,8.01-3.56,8.01-8.01V7.98s-11.7,0-11.7,0Z"/>
  <path id="path6384" class="st2" d="M30.17,7.98c-4.4,0-8.01,3.56-8.01,8.01v10.47c2.02-1.72,5.54-2.82,11.22-2.55,3.04.13,6.29.97,6.29.97v3.39c-1.63-.84-3.56-1.58-6.07-1.76-4.31-.31-6.91,1.8-6.91,5.5s2.6,5.85,6.91,5.5c2.51-.18,4.44-.97,6.07-1.76v3.39s-3.21.84-6.29.97c-5.67.26-9.19-.84-11.22-2.55v18.47h11.74c4.4,0,8.01-3.56,8.01-8.01V7.98s-11.74,0-11.74,0Z"/>
</svg>