<?xml version="1.0" encoding="UTF-8"?>
<svg id="Layer_1" xmlns="http://www.w3.org/2000/svg" version="1.1" viewBox="0 0 64 64">
  <!-- Generator: Adobe Illustrator 29.8.2, SVG Export Plug-In . SVG Version: 2.1.1 Build 3)  -->
  <defs>
    <style>
      .st0 {
        fill: #f37d31;
      }

      .st1 {
        fill: #48bbe5;
      }
    </style>
  </defs>
  <path class="st1" d="M38.62,62.37c-5.68-6.39-9.36-10.46-10.48-11.63-.99-1.04-1.3-1.57-1.32-2.31,0-.31.02-.43.1-.59.11-.24-.03-.1,3.91-4.21,1.66-1.73,3.23-3.37,3.49-3.64,1.32-1.39,1.45-1.5,1.76-1.67.78-.41,1.46-.44,2.14-.1.38.2.03-.19,4.68,4.92,1.87,2.06,5.09,5.6,7.16,7.87,4.03,4.42,7.29,8.02,7.94,8.76.62.71.82,1.21.81,2.13,0,.87-.24,1.45-.74,1.82-.44.33.31.3-9.32.3h-8.7l-1.43-1.63h0Z"/>
  <path class="st0" d="M3.91,63.56c-.13-.03-.3-.1-.4-.13-.27-.11-.62-.48-.76-.78l-.13-.27v-18.97l19.83-21.69L42.29.02l8.58-.02c8.43-.02,8.58-.02,8.87.07.65.2,1.21.67,1.48,1.22.11.23.14.37.16.68.03.48-.04.79-.28,1.3-.26.54-.51.87-1.45,1.86-2.3,2.42-9.1,9.84-31.18,33.9C12.5,56.45,7.3,62.1,6.63,62.78c-.3.3-.7.53-1.22.7-.4.13-1.16.17-1.5.07"/>
  <path class="st1" d="M4.17,32.67c-.57-.16-1.02-.54-1.3-1.1l-.17-.36-.02-14.93c-.02-16.74-.04-15.21.34-15.62.24-.27.53-.43.96-.54.28-.07.78-.09,6.72-.09S17.14.03,17.41.11c.4.11.62.24.87.48.24.24.37.5.48.89.06.24.07,1.23.07,8.58v8.31l-1.76,1.94c-6.44,7.17-10.31,11.38-10.85,11.82-.59.5-1.4.71-2.06.53"/>
</svg>