<?xml version="1.0" encoding="UTF-8"?>
<svg id="Layer_1" xmlns="http://www.w3.org/2000/svg" version="1.1" xmlns:xlink="http://www.w3.org/1999/xlink" viewBox="0 0 64 64">
  <!-- Generator: Adobe Illustrator 29.8.2, SVG Export Plug-In . SVG Version: 2.1.1 Build 3)  -->
  <defs>
    <style>
      .st0 {
        fill: #e82529;
      }

      .st0, .st1, .st2 {
        fill-rule: evenodd;
      }

      .st3 {
        mask: url(#mask);
      }

      .st1 {
        fill: #fefefe;
      }

      .st2 {
        fill: #fff;
      }
    </style>
    <mask id="mask" x="0" y=".01" width="64" height="63.78" maskUnits="userSpaceOnUse">
      <g id="mask-2">
        <polygon id="path-1" class="st2" points="0 .01 64 .01 64 63.79 0 63.79 0 .01"/>
      </g>
    </mask>
  </defs>
  <g id="Coming-Soon">
    <g id="Coming-Soon-LinkAja">
      <g id="Group-26">
        <g id="Group-30">
          <g id="Group-3">
            <g class="st3">
              <path id="Fill-1" class="st0" d="M57.99,63.79H6.01C2.71,63.79,0,61.1,0,57.8V6C0,2.71,2.71.01,6.01.01h51.98c3.31,0,6.01,2.69,6.01,5.99v51.8c0,3.29-2.7,5.99-6.01,5.99"/>
            </g>
          </g>
          <path id="Fill-4" class="st1" d="M13.81,12.02h3.03c.23,0,.41.2.38.43l-1.41,9.74c-.05.37.24.71.62.71h5.32c.15,0,.27.13.24.28l-.41,2.8c-.02.15-.15.25-.29.25h-6.01c-1.79,0-3.5-1.46-3.25-3.23l1.42-10.65c.02-.19.19-.33.38-.33h0Z"/>
          <path id="Fill-6" class="st1" d="M23.92,15.91l-1.39,9.93c-.02.16.1.3.26.3h2.93c.21,0,.39-.15.41-.36l1.37-9.77c.03-.22-.15-.42-.37-.42h-2.85c-.19,0-.35.14-.37.32h0Z"/>
          <path id="Fill-8" class="st1" d="M29.97,25.37c-.91-.03-1.33.25-1.86.57.13-.9,1.14-7.87,1.23-8.3.1-.46.19-1.22.59-1.6.47-.45,1.2-.71,4.84-.72,3.71-.01,4.43,2.65,4.24,4.38-.17,1.48-.72,5.14-.88,6.16-.02.16-.16.27-.31.27h-2.87c-.21,0-.37-.18-.34-.39.15-1.02.53-3.75.67-4.54.16-.98.29-2.06.03-2.48-.26-.42-1.05-.75-2.56-.49l-1.11,7.86s-.72-.68-1.66-.71h0Z"/>
          <path id="Fill-10" class="st1" d="M42.12,11.46h3.18c.12,0,.21.1.19.22l-1.98,14.3c-.01.11-.11.19-.21.19h-3.14c-.13,0-.23-.11-.21-.24l1.98-14.29c.01-.1.1-.17.19-.17h0Z"/>
          <path id="Fill-12" class="st1" d="M44.58,20.07l3.6-4.2c.11-.13.28-.21.45-.21h3.16c.23,0,.35.27.2.44l-3.68,4.07,3.36,7.21c.12.26-.07.57-.36.57h-2.85c-.15,0-.28-.09-.35-.22l-3.52-7.65Z"/>
          <path id="Fill-14" class="st1" d="M28.13,12.9c-.26,1.08-1.23,1.89-2.26,1.89s-1.81-.88-1.55-1.96c.26-1.08,1.1-1.96,2.32-1.96,1.02,0,1.75.95,1.49,2.03h0Z"/>
          <path id="Fill-16" class="st1" d="M31.37,28.66c-.26,1.08-1.23,1.89-2.26,1.89s-1.81-.88-1.55-1.96c.26-1.08,1.1-1.96,2.32-1.96,1.02,0,1.75.95,1.49,2.03h0Z"/>
          <path id="Fill-18" class="st1" d="M46.76,41.59c-.22,1.07-1.2,1.86-2.28,1.86-1.08,0-1.94-.87-1.73-1.94.22-1.07,1.06-1.94,2.34-1.93,1.08,0,1.88.94,1.67,2.01h0Z"/>
          <path id="Fill-20" class="st1" d="M19.67,36.27h-1.93c-.07,0-.12-.07-.09-.14l1.68-4.24c.03-.08.15-.06.16.02l.38,4.15c.01.11-.08.21-.19.21h0ZM24.34,41.59l-2.15-12.83c-.09-.56-.58-.97-1.15-.97h-2.16c-.66,0-1.26.38-1.53.98l-5.79,12.83c-.08.19.05.4.26.4l3.01-.02c.21,0,.39-.12.47-.31l1-2.35c.03-.06.09-.11.16-.11h3.64c.09,0,.16.07.17.16l.22,2.22c.03.26.24.46.5.46h2.95c.25,0,.43-.22.39-.46h0Z"/>
          <path id="Fill-22" class="st1" d="M22.9,43.92l.7,2.14c.12.35.22.43.46.38.88-.18,3-.81,4.04-2.21,1.35-1.82,1.54-5.05,1.78-6.69.2-1.35.63-4.67.77-5.8.03-.2-.13-.38-.34-.38h-2.7c-.24,0-.44.18-.47.41-.22,1.6-1,7.33-1.14,8.13-.16.93-.19,2.26-1.56,3.05-.69.4-1.04.47-1.31.6-.14.06-.29.13-.23.37h0Z"/>
          <path id="Fill-24" class="st1" d="M37.75,38.98s-1.41.48-2.08-.03c-.68-.5-.73-1.54-.34-3.03.39-1.49,1.38-1.74,1.8-1.77.42-.03,1.22.17,1.22.17l-.6,4.65ZM41.65,31.74c-.91-.23-2.44-.73-4.9-.55-2.27.17-4.83,1.21-5.31,5.67-.48,4.46,1.57,5.32,4.51,5.45,2.16.09,3.85-.5,4.6-.82.26-.11.44-.35.48-.63l1.09-8.59c.04-.34-.13-.45-.47-.53Z"/>
          <path id="Fill-26" class="st1" d="M43.74,38.16l.79-8.23c.03-.29.28-.42.57-.42h2.73c.25,0,.36.19.29.51l-1.67,8.24c-.03.16-.17.27-.34.27h-2.04c-.2,0-.36-.17-.34-.38h0Z"/>
          <path id="Fill-28" class="st1" d="M11.78,53.33c.54.3,1.17.38,1.77.24,2.4-.57,7.7-2.09,18.91-3.7,14.09-2.03,24.49-2.02,24.49-2.02l.03-.02s-9.22-1.26-24.35.21c-15.13,1.47-23.58,3.79-23.58,3.79l2.73,1.5Z"/>
        </g>
      </g>
    </g>
  </g>
</svg>