<?xml version="1.0" encoding="UTF-8"?>
<svg id="Layer_1" xmlns="http://www.w3.org/2000/svg" version="1.1" xmlns:xlink="http://www.w3.org/1999/xlink" viewBox="0 0 64 64">
  <!-- Generator: Adobe Illustrator 29.8.2, SVG Export Plug-In . SVG Version: 2.1.1 Build 3)  -->
  <defs>
    <style>
      .st0 {
        fill: #003d79;
      }

      .st1 {
        fill: url(#New_Gradient_Swatch_1);
      }
    </style>
    <linearGradient id="New_Gradient_Swatch_1" data-name="New Gradient Swatch 1" x1="23.17" y1="6.52" x2="64.71" y2="-13.74" gradientTransform="translate(4.99 27.87) rotate(1.21)" gradientUnits="userSpaceOnUse">
      <stop offset="0" stop-color="#fcb813"/>
      <stop offset=".22" stop-color="#ffca05"/>
      <stop offset=".39" stop-color="#f9a51a"/>
      <stop offset=".53" stop-color="#ffca05"/>
      <stop offset=".65" stop-color="#f9a51a"/>
      <stop offset=".65" stop-color="#f9aa17"/>
      <stop offset=".69" stop-color="#fcbb0d"/>
      <stop offset=".72" stop-color="#fec606"/>
      <stop offset=".76" stop-color="#ffca05"/>
      <stop offset=".8" stop-color="#ffca05"/>
      <stop offset="1" stop-color="#ffca05"/>
    </linearGradient>
  </defs>
  <path class="st0" d="M.07,35.49c0-.93-.02-1.7-.07-2.39h1.75l.08,1.19h.05c.4-.63,1.12-1.37,2.48-1.37,1.06,0,1.88.6,2.23,1.49h.03c.28-.45.61-.78.99-1.01.45-.31.96-.48,1.62-.48,1.34,0,2.69.91,2.69,3.49v4.74h-1.98v-4.44c0-1.34-.46-2.13-1.44-2.13-.69,0-1.21.5-1.42,1.07-.05.2-.1.45-.1.68v4.82h-1.98v-4.66c0-1.12-.45-1.92-1.39-1.92-.76,0-1.27.59-1.45,1.16-.08.2-.12.43-.12.66v4.76H.07v-5.65Z"/>
  <path class="st0" d="M19.65,39.21c0,.73.03,1.44.11,1.93h-1.83l-.13-.89h-.05c-.5.63-1.34,1.07-2.38,1.07-1.62,0-2.53-1.17-2.53-2.39,0-2.03,1.8-3.06,4.77-3.04v-.13c0-.53-.22-1.4-1.64-1.4-.79,0-1.62.25-2.16.59l-.4-1.32c.59-.36,1.64-.71,2.91-.71,2.58,0,3.32,1.64,3.32,3.39v2.91ZM17.67,37.21c-1.44-.03-2.81.28-2.81,1.5,0,.79.51,1.16,1.16,1.16.81,0,1.4-.53,1.59-1.11.05-.15.07-.31.07-.45v-1.11Z"/>
  <path class="st0" d="M21.05,35.49c0-.93-.02-1.7-.06-2.39h1.78l.1,1.21h.05c.35-.63,1.22-1.39,2.56-1.39,1.4,0,2.86.91,2.86,3.45v4.77h-2.03v-4.54c0-1.16-.43-2.03-1.54-2.03-.81,0-1.37.58-1.59,1.19-.07.18-.08.43-.08.66v4.73h-2.05v-5.65Z"/>
  <path class="st0" d="M37.14,29.86v9.01c0,.83.03,1.72.07,2.26h-1.82l-.08-1.27h-.03c-.48.89-1.45,1.45-2.63,1.45-1.92,0-3.44-1.63-3.44-4.11-.02-2.69,1.67-4.3,3.6-4.3,1.11,0,1.9.46,2.26,1.06h.03v-4.11h2.03ZM35.11,36.45c0-.16-.02-.36-.05-.53-.18-.79-.82-1.44-1.75-1.44-1.3,0-2.03,1.16-2.03,2.66s.73,2.54,2.02,2.54c.82,0,1.55-.56,1.75-1.44.05-.18.07-.38.07-.59v-1.21Z"/>
  <path class="st0" d="M38.58,41.14v-8.04h2.05v8.04h-2.05Z"/>
  <path class="st0" d="M42.07,35.69c0-1.09-.02-1.87-.07-2.59h1.77l.06,1.53h.07c.4-1.14,1.34-1.53,2.2-1.53.2,0,.31-.03.48,0v1.78c-.16-.03-.35-.07-.59-.07-.98,0-1.64.63-1.82,1.53-.03.18-.07.4-.07.63v4.16h-2.03v-5.45Z"/>
  <path class="st0" d="M47.52,41.14v-8.04h2.05v8.04h-2.05Z"/>
  <path class="st1" d="M62.32,24.59c-1.01-1.16-2.09-.63-2.95-.21-.36.18-2.96,1.65-2.96,1.65-1.43.59-2.53-.05-2.97-.59-.04-.06-.08-.11-.11-.16l-.1-.18c-.16-.26-.34-.56-.57-.85-.12-.16-.26-.32-.41-.47-.97-.98-2.53-1.67-5.14-.42-1.23.71-5.25,3.01-5.25,3.01-1.51.62-2.66-.14-3.04-.69-.02-.02-.03-.05-.04-.07l-.05-.08-.25-.42c-.11-.17-.23-.35-.37-.53-.12-.16-.26-.32-.41-.47-.97-.98-2.52-1.67-5.1-.44-1.56.89-5.19,2.97-5.19,2.97t0,0c-1.49.85-2.66,1.52-2.66,1.52l1.38,1.69c.58.55,1.67,1.46,3.35.69,0,0,4.64-2.69,4.66-2.7,3.97-2.18,5.93-.1,6.8,1.29.03.04.06.09.08.13h0s.02.03.03.05l.1.16c.42.64,1.09,1.05,1.88,1.03.44,0,.73-.15,1.17-.39l4.49-2.61s0,0,0,0c4.02-2.21,6.01.01,6.86,1.4.07.12.14.23.22.34.42.57,1,.95,1.74.93.49,0,1.03-.3,1.11-.36l5.39-3.11s-.55-.83-1.68-2.13Z"/>
</svg>