<?xml version="1.0" encoding="UTF-8"?>
<svg id="Layer_1" xmlns="http://www.w3.org/2000/svg" version="1.1" viewBox="0 0 64 64">
  <!-- Generator: Adobe Illustrator 29.8.2, SVG Export Plug-In . SVG Version: 2.1.1 Build 3)  -->
  <defs>
    <style>
      .st0 {
        fill: #eb001b;
      }

      .st1 {
        fill: #ff5a00;
      }

      .st2 {
        fill: #f79e1b;
      }
    </style>
  </defs>
  <rect id="rect19" class="st1" x="23.31" y="16.44" width="17.32" height="31.12"/>
  <path class="st0" d="M24.47,32c0-6.32,2.97-11.93,7.53-15.56-3.36-2.64-7.59-4.23-12.21-4.23C8.85,12.21,0,21.06,0,32s8.85,19.79,19.79,19.79c4.62,0,8.85-1.59,12.21-4.23-4.57-3.57-7.53-9.24-7.53-15.56Z"/>
  <path id="path22" class="st2" d="M64,32c0,10.94-8.85,19.79-19.79,19.79-4.62,0-8.85-1.59-12.21-4.23,4.62-3.63,7.53-9.24,7.53-15.56s-2.97-11.93-7.53-15.56c3.35-2.64,7.58-4.23,12.2-4.23,10.95,0,19.8,8.91,19.8,19.79Z"/>
</svg>