<?xml version="1.0" encoding="UTF-8"?>
<svg id="Layer_1" xmlns="http://www.w3.org/2000/svg" version="1.1" viewBox="0 0 64 64">
  <!-- Generator: Adobe Illustrator 29.8.2, SVG Export Plug-In . SVG Version: 2.1.1 Build 3)  -->
  <defs>
    <style>
      .st0 {
        fill: #4b2489;
        fill-rule: evenodd;
      }
    </style>
  </defs>
  <path class="st0" d="M17.63,38.85c-1.97,1.87-4.6,2.9-7.32,2.87-2.73.04-5.37-.99-7.36-2.87-3.85-3.73-3.95-9.88-.21-13.73.07-.07.14-.14.21-.21,1.98-1.89,4.63-2.93,7.37-2.89,2.72-.03,5.35.99,7.32,2.87,3.85,3.73,3.95,9.87.22,13.72-.07.08-.15.15-.22.22M10.32,25.23c-3.55-.03-6.45,2.82-6.49,6.36,0,.1,0,.19,0,.29,0,3.57,2.9,6.47,6.47,6.47s6.47-2.9,6.47-6.47h0c.12-3.55-2.65-6.53-6.2-6.65-.08,0-.17,0-.25,0M41.91,24.34l-7.91,17.64-.45-.08c-2.26-.41-2.72-.97-3.77-3.27l-5.93-12.91h-2.23v-3.13h8.42v3.13h-2.01l4.76,10.68,4.62-10.68h-2.49v-3.13h6.98v1.76ZM61.04,38.85c-4.14,3.82-10.53,3.82-14.67,0-3.85-3.73-3.95-9.88-.21-13.73.07-.07.14-.14.21-.21,4.14-3.82,10.53-3.82,14.67,0,3.85,3.71,3.96,9.85.25,13.7-.08.08-.16.17-.25.25M53.76,25.23c-3.55-.03-6.46,2.82-6.5,6.37,0,.09,0,.19,0,.28,0,3.57,2.9,6.47,6.47,6.47s6.47-2.9,6.47-6.47c.13-3.54-2.64-6.52-6.18-6.65-.09,0-.17,0-.26,0"/>
</svg>