<?xml version="1.0" encoding="UTF-8"?>
<svg id="Layer_1" xmlns="http://www.w3.org/2000/svg" version="1.1" viewBox="0 0 64 64">
  <!-- Generator: Adobe Illustrator 29.8.2, SVG Export Plug-In . SVG Version: 2.1.1 Build 3)  -->
  <defs>
    <style>
      .st0 {
        fill: #0064ff;
      }
    </style>
  </defs>
  <path id="path24" class="st0" d="M51.86,25.52L32,0,12.15,25.52c-3.35,4.32-4.66,8.08-4.66,12.16,0,6.24,3.19,11.84,8.9,15.76l15.61,10.56,15.61-10.56c5.72-3.92,8.9-9.52,8.9-15.76,0-4.08-1.3-7.84-4.65-12.16ZM28.82,52.4v3.76l-9.56-6.4c-4.49-2.96-7.03-7.36-7.03-11.84,0-2.32.65-4.56,1.8-6.64.49,1.36,1.31,2.72,3.11,4.72l10.13,11.04c1.63,1.84,1.55,2.96,1.55,5.36ZM21.3,33.6c-2.54-2.72-3.02-4.24-3.02-5.84s.33-2.88,2.29-5.36l11.44-14.56,11.44,14.56c1.88,2.48,2.29,3.84,2.29,5.36,0,1.6-.49,3.12-3.02,5.84l-10.72,11.68-10.7-11.68ZM44.75,49.76l-9.56,6.4v-3.76c0-2.4-.08-3.52,1.56-5.36l10.13-11.04c1.8-2,2.62-3.36,3.11-4.72,1.14,2.08,1.8,4.32,1.8,6.64,0,4.49-2.54,8.88-7.03,11.85Z"/>
</svg>