<?xml version="1.0" encoding="UTF-8"?>
<svg id="Layer_1" xmlns="http://www.w3.org/2000/svg" version="1.1" viewBox="0 0 64 64">
  <!-- Generator: Adobe Illustrator 29.8.2, SVG Export Plug-In . SVG Version: 2.1.1 Build 3)  -->
  <path id="path1" d="M15.13,40.07v-4.09h4.13v8.17h-4.13v-4.09ZM55.83,43.53v-.5h3.12c2.1,0,3.14,0,3.17,0,.19-.02.38-.1.53-.22.05-.04.14-.13.18-.18.08-.11.14-.24.18-.38v-.05s.01-3.1.01-3.1v-3.1h.98v3.56c0,2.46,0,3.58,0,3.61-.02.23-.13.45-.3.61-.13.12-.29.21-.48.24-.04,0-.26,0-3.71.01h-3.67s0-.49,0-.49ZM3.6,40.09c-.17-.02-.28-.05-.4-.12-.29-.16-.47-.45-.51-.79,0-.04,0-.41,0-1.33,0-3.09.02-7.25.02-8.84,0-.95,0-2.23,0-2.83,0-.6,0-1.2,0-1.32,0-.19,0-.22.02-.27.06-.3.26-.54.53-.67.1-.05.19-.07.31-.09.05,0,.16,0,1.68-.01h1.63s0,6.17,0,6.17v6.17h6.15v3.94h-4.71c-2.59,0-4.72,0-4.73,0h0ZM20.98,35.05v-5.05h12.1v-2.42h-12.1v-3.78h16.5v9.93h-3.46s-3.46,0-3.46,0l3.44,3.15c1.89,1.74,3.45,3.16,3.46,3.17l.02.02h-2.94s-2.94,0-2.94,0l-3.39-3.18-3.39-3.18v3.18s0,3.18,0,3.18h-3.83v-5.05ZM39.19,31.93v-8.16h4.03v16.31h-4.03v-8.16ZM44.98,37.99v-2.03h10.86v-2.02h-10.86v-10.13h16.3v4.04h-10.85v2.05h10.85v10.12h-16.3v-2.03ZM8.91,31.93v-2.07h4.1v4.13h-4.1v-2.07ZM11.8,31.92v-.83h-1.68v.83c0,.45,0,.83,0,.83,0,0,.38,0,.84,0h.84v-.83ZM15.13,30.92v-3.05h-6.22v-2.03s0-2.03,0-2.03h9.49c.43.09.75.39.84.8v.06s.02,4.65.02,4.65v4.65s-2.07,0-2.07,0h-2.07v-3.05ZM0,27.87s0-.26,0-3.55c0-2.43,0-3.55,0-3.59.03-.3.19-.56.44-.73.13-.08.3-.14.46-.16.04,0,1.27,0,3.65,0,3.47,0,3.59,0,3.6,0,0,0,0,.05,0,.49s0,.48,0,.49c0,0-.23,0-3.14,0-2.16,0-3.14,0-3.18,0-.18.02-.35.08-.48.19-.05.04-.12.11-.16.16-.11.14-.17.29-.19.48,0,.04,0,1,0,3.13,0,2.79,0,3.08,0,3.08,0,0-.06,0-.5,0-.46,0-.49,0-.5,0Z"/>
</svg>