<?xml version="1.0" encoding="UTF-8"?>
<svg id="Layer_1" xmlns="http://www.w3.org/2000/svg" version="1.1" viewBox="0 0 64 64">
  <!-- Generator: Adobe Illustrator 29.8.2, SVG Export Plug-In . SVG Version: 2.1.1 Build 3)  -->
  <defs>
    <style>
      .st0 {
        fill: #ed4c2f;
      }
    </style>
  </defs>
  <path class="st0" d="M57.86,13.57H6.7s-1.99-.33-2.49-2.42c-.16-.83.17-.91,1.05-.91h46.97v-5.06s-.16-2.71-3.35-2.48L2.07,8.94s-2.07.24-2.07,2.73v44.46s.27,5.2,6.23,5.2h53.05s4.73-1.13,4.73-5.86V18.77s.09-5.2-6.14-5.2ZM42.58,43.76c-.16,4.45-3.88,9.42-7.37,9.86-.8.1-1.55.16-2.26.16-3.88,0-6.74-1.58-10.96-5.76-.75-.74-.76-1.95-.01-2.7.74-.76,1.95-.76,2.71-.02,4.44,4.39,6.5,5.48,10.04,4.52,2.06-.56,3.91-3.19,4.02-6.2.09-2.34-1.56-3.87-4.91-4.54-6-1.2-9.54-3.49-10.52-6.82-.79-2.68.25-5.67,2.85-8.2l.11-.1c5.59-4.67,12.09-1.19,14.74,1.31.77.72.81,1.94.08,2.7-.73.77-1.94.81-2.7.09-.23-.21-5.25-4.77-9.6-1.2-1.49,1.47-2.16,3.08-1.8,4.32.53,1.8,3.23,3.28,7.6,4.15,7.43,1.49,8.06,6.39,7.99,8.43Z"/>
</svg>