<?xml version="1.0" encoding="UTF-8"?>
<svg id="Layer_1" xmlns="http://www.w3.org/2000/svg" version="1.1" viewBox="0 0 64 64">
  <!-- Generator: Adobe Illustrator 29.8.2, SVG Export Plug-In . SVG Version: 2.1.1 Build 3)  -->
  <defs>
    <style>
      .st0 {
        fill: #1434cb;
      }
    </style>
  </defs>
  <path class="st0" d="M41.69,21.63c-4.54,0-8.61,2.36-8.61,6.71,0,4.99,7.2,5.34,7.2,7.84,0,1.06-1.21,2-3.28,2-2.93,0-5.12-1.32-5.12-1.32l-.94,4.39s2.52,1.12,5.88,1.12c4.97,0,8.88-2.47,8.88-6.9,0-5.27-7.23-5.61-7.23-7.93,0-.83.99-1.73,3.05-1.73,2.32,0,4.22.96,4.22.96l.92-4.24s-2.06-.89-4.97-.89h0ZM.11,21.95l-.11.64s1.91.35,3.63,1.05c2.22.8,2.37,1.27,2.75,2.71l4.07,15.68h5.45l8.4-20.09h-5.44l-5.4,13.66-2.2-11.58c-.2-1.32-1.23-2.08-2.48-2.08H.11ZM26.5,21.95l-4.27,20.09h5.19l4.25-20.09h-5.17ZM55.44,21.95c-1.25,0-1.91.67-2.4,1.84l-7.6,18.25h5.44l1.05-3.04h6.63l.64,3.04h4.8l-4.19-20.09h-4.37ZM56.15,27.38l1.61,7.54h-4.32l2.71-7.54h0Z"/>
</svg>